<svg width="100" height="44" viewBox="0 0 100 44" fill="none" xmlns="http://www.w3.org/2000/svg">
<path d="M16.56 43V10.984H10.608L0.528 21.112L4.416 25.192L9.744 19.768V43H16.56ZM35.5744 43.576C44.6944 43.576 48.8224 35.272 48.8224 27.016C48.8224 18.76 44.6944 10.504 35.5744 10.504C26.4064 10.504 22.3264 18.76 22.3264 27.016C22.3264 35.272 26.4064 43.576 35.5744 43.576ZM35.5744 37.528C30.9664 37.528 29.2384 32.92 29.2384 27.016C29.2384 21.112 30.9664 16.552 35.5744 16.552C40.1344 16.552 41.8624 21.112 41.8624 27.016C41.8624 32.92 40.1344 37.528 35.5744 37.528ZM66.3 43.576C75.42 43.576 79.548 35.272 79.548 27.016C79.548 18.76 75.42 10.504 66.3 10.504C57.132 10.504 53.052 18.76 53.052 27.016C53.052 35.272 57.132 43.576 66.3 43.576ZM66.3 37.528C61.692 37.528 59.964 32.92 59.964 27.016C59.964 21.112 61.692 16.552 66.3 16.552C70.86 16.552 72.588 21.112 72.588 27.016C72.588 32.92 70.86 37.528 66.3 37.528Z" fill="white"/>
<path d="M90.1136 25.672H93.0896V23.032C97.3616 22.552 99.7136 20.344 99.7136 17.032C99.7136 13 96.2576 11.848 93.0896 11.128V6.904C94.3856 7.288 95.5856 7.96 96.4496 8.776L98.9936 6.136C97.7936 4.792 95.8256 3.784 93.0896 3.448V0.663999H90.1136V3.352C85.8416 3.688 83.2976 6.28 83.2976 9.064C83.2976 13.288 86.8976 14.296 90.1136 15.016V19.528C88.2416 19.192 86.6576 18.136 85.5056 17.032L82.9616 20.008C84.4976 21.688 86.8976 22.84 90.1136 23.08V25.672ZM88.0496 8.632C88.0496 7.768 88.8176 7.048 90.1136 6.76V10.408C88.8656 10.024 88.0496 9.544 88.0496 8.632ZM94.9616 17.608C94.9616 18.424 94.2896 19.144 93.0896 19.48V15.736C94.1936 16.12 94.9616 16.648 94.9616 17.608Z" fill="url(#paint0_linear_4_119)"/>
<defs>
<linearGradient id="paint0_linear_4_119" x1="51" y1="-1" x2="51" y2="58" gradientUnits="userSpaceOnUse">
<stop stop-color="#F2A04A"/>
<stop offset="1" stop-color="#F2C24D"/>
</linearGradient>
</defs>
</svg>
