<svg width="277" height="209" viewBox="0 0 277 209" fill="none" xmlns="http://www.w3.org/2000/svg">
<circle cx="3" cy="206" r="3" fill="white"/>
<line x1="3" y1="153" x2="3" y2="203" stroke="white" stroke-width="2"/>
<line x1="1.69175" y1="154.162" x2="168.692" y2="100.049" stroke="white" stroke-width="2"/>
<line x1="168" y1="77" x2="168" y2="100" stroke="white" stroke-width="2"/>
<circle cx="168" cy="74" r="3" fill="white"/>
<path d="M172.876 62V52.662H165.092V62H166.254V53.698H171.714V62H172.876ZM178.349 62.168C180.127 62.168 181.359 60.796 181.359 58.612C181.359 56.414 180.127 55.07 178.349 55.07C177.397 55.07 176.557 55.56 176.067 56.246V55.238H175.017V64.576H176.067V60.978C176.613 61.734 177.425 62.168 178.349 62.168ZM178.083 61.23C177.257 61.23 176.431 60.726 176.067 60.138V57.086C176.431 56.498 177.257 56.008 178.083 56.008C179.441 56.008 180.253 57.114 180.253 58.612C180.253 60.11 179.441 61.23 178.083 61.23ZM184.037 62L187.607 56.736V62H188.657V55.238H187.621L184.079 60.404V55.238H183.029V62H184.037ZM193.707 61.23C192.265 61.23 191.453 59.998 191.453 58.598C191.453 57.24 192.265 56.008 193.707 56.008C195.149 56.008 195.947 57.24 195.947 58.598C195.947 59.998 195.149 61.23 193.707 61.23ZM193.707 62.168C195.793 62.168 197.039 60.544 197.039 58.598C197.039 56.68 195.793 55.07 193.875 55.07C192.671 55.07 191.817 55.742 191.327 56.512C191.565 55.364 192.167 54.496 194.169 54.216C195.317 54.062 196.829 53.768 196.829 52.662H195.807C195.807 52.942 195.387 53.124 193.903 53.348C191.551 53.656 190.361 55.014 190.361 58.304C190.361 60.544 191.635 62.168 193.707 62.168ZM198.833 55.238V62H202.417C203.803 62 204.545 61.048 204.545 59.928C204.545 58.822 203.817 57.856 202.417 57.856H199.883V55.238H198.833ZM202.305 58.78C203.075 58.78 203.467 59.27 203.467 59.928C203.467 60.6 203.061 61.076 202.305 61.076H199.883V58.78H202.305ZM206.701 62V55.238H205.651V62H206.701ZM208.002 62.168C209.304 62.168 210.032 61.216 210.34 58.696L210.648 56.162H213.378V62H214.428V55.238H209.724L209.29 58.57C209.024 60.572 208.632 61.3 208.002 61.3V62.168ZM216.525 55.238V62H220.109C221.495 62 222.237 61.048 222.237 59.928C222.237 58.822 221.509 57.856 220.109 57.856H217.575V55.238H216.525ZM219.997 58.78C220.767 58.78 221.159 59.27 221.159 59.928C221.159 60.6 220.753 61.076 219.997 61.076H217.575V58.78H219.997ZM231.242 62C232.488 62 233.216 61.258 233.216 60.166C233.216 59.396 232.67 58.682 231.984 58.514C232.558 58.332 233.076 57.786 233.076 56.974C233.076 55.952 232.362 55.238 231.172 55.238H227.448V62H231.242ZM231.032 61.076H228.498V58.99H231.032C231.746 58.99 232.124 59.494 232.124 60.04C232.124 60.684 231.704 61.076 231.032 61.076ZM230.99 58.066H228.498V56.162H230.99C231.634 56.162 231.998 56.54 231.998 57.128C231.998 57.66 231.648 58.066 230.99 58.066ZM245.712 62V55.238H244.312L242.268 60.25L240.196 55.238H238.81V62H239.86V56.694L242.072 62H242.464L244.662 56.694V62H245.712ZM250.858 62.168C251.964 62.168 252.874 61.804 253.546 61.132L253.042 60.446C252.51 60.992 251.726 61.3 250.956 61.3C249.5 61.3 248.604 60.236 248.52 58.962H253.994V58.696C253.994 56.666 252.79 55.07 250.746 55.07C248.814 55.07 247.414 56.652 247.414 58.612C247.414 60.726 248.856 62.168 250.858 62.168ZM252.958 58.192H248.52C248.576 57.156 249.29 55.938 250.732 55.938C252.272 55.938 252.944 57.184 252.958 58.192ZM258.677 62.168C259.909 62.168 260.637 61.664 261.155 60.992L260.455 60.348C260.007 60.95 259.433 61.23 258.733 61.23C257.291 61.23 256.395 60.11 256.395 58.612C256.395 57.114 257.291 56.008 258.733 56.008C259.433 56.008 260.007 56.274 260.455 56.89L261.155 56.246C260.637 55.574 259.909 55.07 258.677 55.07C256.661 55.07 255.303 56.61 255.303 58.612C255.303 60.628 256.661 62.168 258.677 62.168ZM263.634 62L265.286 59.382H267.134V62H268.184V55.238H264.614C263.242 55.238 262.472 56.162 262.472 57.31C262.472 58.444 263.2 59.214 264.208 59.34L262.402 62H263.634ZM264.726 58.458C263.956 58.458 263.55 57.982 263.55 57.31C263.55 56.638 263.984 56.162 264.726 56.162H267.134V58.458H264.726ZM275.644 63.722H276.694V61.076H275.91V55.238H274.86V61.076H271.332V55.238H270.282V62H275.644V63.722Z" fill="white"/>
<path d="M189.352 43V37H176.296C184.6 30.952 189.112 26.2 189.112 20.728C189.112 14.344 183.688 10.504 176.872 10.504C172.408 10.504 167.656 12.136 164.536 15.736L168.424 20.248C170.584 17.992 173.368 16.552 177.016 16.552C179.656 16.552 182.2 17.944 182.2 20.728C182.2 24.664 178.36 27.976 165.256 37.672V43H189.352ZM208.197 43.576C215.493 43.576 220.437 38.824 220.437 32.584C220.437 25.768 215.301 22.168 209.541 22.168C206.037 22.168 202.821 24.136 201.333 26.296C201.285 26.056 201.285 25.864 201.285 25.624C201.285 20.536 204.597 16.552 209.301 16.552C212.133 16.552 213.957 17.416 215.685 19.048L218.757 13.816C216.453 11.848 213.189 10.504 209.301 10.504C199.845 10.504 194.373 17.368 194.373 27.064C194.373 36.088 198.453 43.576 208.197 43.576ZM207.813 37.528C203.349 37.528 201.621 34.12 201.333 31.048C202.869 29.128 205.173 28.024 207.573 28.024C210.645 28.024 213.525 29.464 213.525 32.824C213.525 35.08 211.509 37.528 207.813 37.528ZM237.784 43.576C246.904 43.576 251.032 35.272 251.032 27.016C251.032 18.76 246.904 10.504 237.784 10.504C228.616 10.504 224.536 18.76 224.536 27.016C224.536 35.272 228.616 43.576 237.784 43.576ZM237.784 37.528C233.176 37.528 231.448 32.92 231.448 27.016C231.448 21.112 233.176 16.552 237.784 16.552C242.344 16.552 244.072 21.112 244.072 27.016C244.072 32.92 242.344 37.528 237.784 37.528Z" fill="white"/>
<path d="M261.598 25.672H264.574V23.032C268.846 22.552 271.198 20.344 271.198 17.032C271.198 13 267.742 11.848 264.574 11.128V6.904C265.87 7.288 267.07 7.96 267.934 8.776L270.478 6.136C269.278 4.792 267.31 3.784 264.574 3.448V0.663999H261.598V3.352C257.326 3.688 254.782 6.28 254.782 9.064C254.782 13.288 258.382 14.296 261.598 15.016V19.528C259.726 19.192 258.142 18.136 256.99 17.032L254.446 20.008C255.982 21.688 258.382 22.84 261.598 23.08V25.672ZM259.534 8.632C259.534 7.768 260.302 7.048 261.598 6.76V10.408C260.35 10.024 259.534 9.544 259.534 8.632ZM266.446 17.608C266.446 18.424 265.774 19.144 264.574 19.48V15.736C265.678 16.12 266.446 16.648 266.446 17.608Z" fill="url(#paint0_linear_0_1)"/>
<defs>
<linearGradient id="paint0_linear_0_1" x1="218" y1="-1" x2="218" y2="58" gradientUnits="userSpaceOnUse">
<stop stop-color="#F2A04A"/>
<stop offset="1" stop-color="#F2C24D"/>
</linearGradient>
</defs>
</svg>
