<svg width="64" height="64" viewBox="0 0 64 64" fill="none" xmlns="http://www.w3.org/2000/svg">
<path d="M42.6667 35.2C39.1371 35.2 36.2667 38.0703 36.2667 41.5999C36.2667 45.1296 39.1371 48 42.6667 48C46.1963 48 49.0667 45.1296 49.0667 41.5999C49.0667 38.0703 46.1963 35.2 42.6667 35.2ZM42.6667 45.8666C40.3136 45.8666 38.4001 43.9529 38.4001 41.5999C38.4001 39.2468 40.3137 37.3333 42.6667 37.3333C45.0198 37.3333 46.9333 39.2469 46.9333 41.5999C46.9335 43.9531 45.0198 45.8666 42.6667 45.8666Z" fill="white"/>
<path d="M44.8001 45.8667V50.2742L43.2577 49.246C42.8993 49.006 42.4332 49.006 42.0747 49.246L40.5333 50.2742V45.8667H38.4001V52.2667C38.4001 52.6603 38.6166 53.0219 38.9643 53.2074C39.31 53.3931 39.7323 53.3717 40.0587 53.1541L42.6667 51.4154L45.2747 53.1541C45.4528 53.2724 45.6599 53.3333 45.8667 53.3333C46.0395 53.3333 46.2124 53.2917 46.3702 53.2074C46.7169 53.0218 46.9335 52.6602 46.9335 52.2667V45.8667H44.8001Z" fill="white"/>
<path d="M38.4001 10.6665H24.5334V12.7999H38.4001V10.6665Z" fill="white"/>
<path d="M49.0668 17.0664H14.9334V19.1998H49.0668V17.0664Z" fill="white"/>
<path d="M38.4001 23.4663H14.9334V25.5997H38.4001V23.4663Z" fill="white"/>
<path d="M49.0667 23.4663H42.6667V25.5997H49.0667V23.4663Z" fill="white"/>
<path d="M49.0668 29.8667H14.9334V32.0001H49.0668V29.8667Z" fill="white"/>
<path d="M27.7334 36.2666H14.9334V38.4H27.7334V36.2666Z" fill="white"/>
<path d="M20.2668 41.6001H14.9334V43.7335H20.2668V41.6001Z" fill="white"/>
<path d="M27.7334 41.6001H24.5334V43.7335H27.7334V41.6001Z" fill="white"/>
<path d="M58.6668 0C55.726 0 53.3334 2.3925 53.3334 5.33337V7.46675C53.3334 8.0555 53.8101 8.53337 54.4 8.53337H62.9334C63.5233 8.53337 64 8.0555 64 7.46675V5.33337C64.0001 2.3925 61.6076 0 58.6668 0ZM61.8668 6.4H55.4668V5.33337C55.4668 3.56912 56.9025 2.13337 58.6668 2.13337C60.431 2.13337 61.8668 3.56912 61.8668 5.33337V6.4V6.4Z" fill="white"/>
<path d="M58.6667 0H13.8666C10.9259 0 8.53339 2.3925 8.53339 5.33337V56.5334H10.6668V5.33337C10.6668 3.56912 12.1025 2.13337 13.8668 2.13337H54.4023C53.7315 3.02512 53.3336 4.13337 53.3336 5.33337V58.6668C53.3336 60.431 51.8978 61.8667 50.1336 61.8667H9.60001V64H50.1335C53.0742 64 55.4669 61.6075 55.4669 58.6666V5.33337C55.4669 3.56912 56.9026 2.13337 58.6669 2.13337C59.2567 2.13337 59.7335 1.6555 59.7335 1.06675C59.7335 0.478 59.2566 0 58.6667 0Z" fill="white"/>
<path d="M50.1335 61.8663C48.3692 61.8663 46.9335 60.4306 46.9335 58.6663V56.5329C46.9335 55.9431 46.4567 55.4663 45.8668 55.4663H1.06663C0.477876 55.4663 0 55.9431 0 56.5329V58.6663C0 61.6072 2.3925 63.9997 5.33339 63.9997H50.1335C50.7233 63.9997 51.2001 63.5229 51.2001 62.9331C51.2001 62.3432 50.7233 61.8663 50.1335 61.8663ZM5.33339 61.8663C3.56913 61.8663 2.13338 60.4306 2.13338 58.6663V57.5997H44.8001V58.6663C44.8001 59.8663 45.198 60.9746 45.8688 61.8663H5.33339V61.8663Z" fill="white"/>
</svg>
