<svg width="65" height="66" viewBox="0 0 65 66" fill="none" xmlns="http://www.w3.org/2000/svg">
<path d="M55.8818 53.0728C54.0163 53.0728 52.4986 54.6036 52.4986 56.4855C52.4986 58.3673 54.0162 59.8982 55.8818 59.8982C57.7472 59.8982 59.2649 58.3673 59.2649 56.4855C59.2649 54.6038 57.7472 53.0728 55.8818 53.0728ZM55.8817 57.8757C55.1218 57.8757 54.5036 57.252 54.5036 56.4855C54.5036 55.7191 55.1218 55.0954 55.8817 55.0954C56.6415 55.0954 57.2597 55.7191 57.2597 56.4855C57.2597 57.252 56.6415 57.8757 55.8817 57.8757Z" fill="white"/>
<path d="M64.9969 56.3088C64.933 53.8102 63.8847 51.5121 62.0448 49.838L41.8604 31.4734L59.707 13.4706C59.8243 13.4352 59.9402 13.3913 60.052 13.3317L63.9167 11.2741C64.4506 10.9898 64.8087 10.4811 64.8988 9.87898C64.989 9.27673 64.7959 8.68427 64.369 8.25321L60.0175 3.86382C59.5905 3.43315 59.0035 3.23837 58.406 3.32938C57.8091 3.42026 57.305 3.78145 57.0229 4.32015L54.9831 8.21841C54.9235 8.33223 54.8778 8.44992 54.8426 8.56942L46.4188 17.0669C46.0273 17.462 46.0273 18.1022 46.4188 18.4973C46.8105 18.892 47.4451 18.892 47.8368 18.4973L55.5669 10.6993L57.5928 12.7429L37.8239 32.6847L35.7981 30.6411L44.427 21.9369C44.8185 21.5418 44.8185 20.9016 44.427 20.5065C44.0353 20.1118 43.4007 20.1118 43.009 20.5065L36.7482 26.8222L29.9343 20.6225C31.8662 15.0131 30.4671 8.77206 26.2763 4.54471C21.9838 0.214616 15.5443 -1.16533 9.87073 1.02956C9.55369 1.15228 9.31971 1.4284 9.24917 1.76342C9.17863 2.09845 9.28073 2.44676 9.52085 2.68897L17.3916 10.6287C17.6244 10.8636 17.7528 11.1759 17.7528 11.5081C17.7528 11.8403 17.6245 12.1526 17.3916 12.3876L12.2802 17.5437C12.0474 17.7787 11.7377 17.9082 11.4084 17.9082C11.0791 17.9082 10.7695 17.7789 10.5365 17.5437L2.66565 9.60402C2.4254 9.3618 2.08038 9.25881 1.74813 9.32996C1.416 9.40125 1.14228 9.63715 1.02063 9.95696C-1.15522 15.6799 0.212751 22.1757 4.50541 26.5061C8.59349 30.6298 14.6605 32.0817 20.1338 30.2977L25.4021 36.1092C25.149 36.6082 24.8198 37.0736 24.4138 37.4831C22.8952 39.015 20.6191 39.4976 18.6148 38.7129C18.2443 38.5675 17.824 38.6569 17.5429 38.9404L5.26767 51.323C1.94466 54.6752 1.94466 60.1295 5.26767 63.4814C6.87768 65.1058 9.018 66 11.2945 66C13.571 66 15.7114 65.1058 17.3212 63.4819L29.5964 51.0995C29.8773 50.816 29.9658 50.3919 29.8219 50.0182C29.0438 47.9964 29.5223 45.7002 31.0408 44.1683C32.5597 42.6364 34.8358 42.1538 36.8401 42.9385C37.2108 43.0839 37.6308 42.9942 37.912 42.711L40.2275 40.3752C40.9247 39.6719 41.3086 38.7367 41.3086 37.7422C41.3086 36.7477 40.9247 35.8125 40.2275 35.1092L39.2418 34.1149L40.4409 32.9054L60.702 51.3399C62.1296 52.6389 62.9432 54.4222 62.9927 56.3609C63.0422 58.2997 62.3207 60.1228 60.9611 61.4941C59.6081 62.8592 57.8054 63.5857 55.8961 63.5441C53.983 63.501 52.2182 62.6928 50.9269 61.2682L35.8621 44.6503C35.4881 44.2379 34.8542 44.2096 34.4457 44.5865C34.0372 44.9635 34.0088 45.6032 34.3824 46.0153L49.4471 62.6332C51.1115 64.469 53.3858 65.5105 55.8513 65.5661C55.9203 65.5677 55.9891 65.5684 56.058 65.5684C58.4461 65.5684 60.6838 64.634 62.3789 62.9243C64.1309 61.1569 65.0606 58.8074 64.9969 56.3088ZM56.7988 9.08143L58.7181 5.41353L62.8327 9.56419L59.1966 11.5002L56.7988 9.08143ZM21.1682 28.4417C20.8922 28.1375 20.4611 28.0326 20.0779 28.1767C15.1756 30.0214 9.61912 28.8042 5.9231 25.0763C2.56712 21.6908 1.26675 16.7828 2.41263 12.2095L9.11857 18.9741C9.73029 19.591 10.5434 19.9307 11.4083 19.9307C12.2732 19.9307 13.0863 19.591 13.6979 18.9741L18.8093 13.818C19.4209 13.2009 19.7576 12.3807 19.7576 11.5082C19.7576 10.6358 19.4209 9.81556 18.8093 9.19861L12.1034 2.43374C16.6367 1.27732 21.5027 2.58946 24.8585 5.97492C28.6486 9.7979 29.8132 15.5144 27.826 20.5385C27.6705 20.9315 27.774 21.3808 28.0857 21.6642L35.3286 28.2542L34.3801 29.2109L33.3945 28.2167C32.6973 27.5134 31.7702 27.1261 30.7843 27.1261C29.7984 27.1261 28.8713 27.5134 28.1741 28.2167L25.8586 30.5525C25.5777 30.8359 25.4891 31.26 25.633 31.6337C25.8997 32.3266 26.0154 33.0513 25.9956 33.7669L21.1682 28.4417ZM38.8094 38.945L36.9332 40.8378C34.3529 40.0874 31.5452 40.7992 29.6231 42.738H29.623C27.701 44.6768 26.9953 47.5088 27.7394 50.1122L15.9034 62.0515C14.6722 63.2934 13.0355 63.9773 11.2947 63.9773C9.55382 63.9773 7.91685 63.2934 6.68599 62.0515C4.14467 59.488 4.14467 55.3169 6.68599 52.7533L18.5219 40.8139C21.1024 41.5647 23.9098 40.8523 25.832 38.9136C27.7539 36.9747 28.4598 34.1427 27.7157 31.5395L29.592 29.6469C30.2494 28.9835 31.3194 28.9835 31.9767 29.6469L33.6713 31.3563L37.1148 34.83L38.8094 36.5394C39.467 37.2027 39.467 38.2819 38.8094 38.945Z" fill="white"/>
<path d="M20.5295 44.6335C20.1379 44.2387 19.5033 44.2387 19.1116 44.6335L9.61464 54.2136C9.2231 54.6087 9.2231 55.2488 9.61464 55.6439C9.81041 55.8413 10.0671 55.94 10.3236 55.94C10.5801 55.94 10.8368 55.8413 11.0326 55.6439L20.5295 46.0639C20.921 45.6688 20.921 45.0285 20.5295 44.6335Z" fill="white"/>
<path d="M24.0385 48.1731C23.6469 47.7782 23.0122 47.7782 22.6206 48.1731L13.1236 57.753C12.732 58.1481 12.732 58.7883 13.1236 59.1834C13.3194 59.3807 13.576 59.4795 13.8326 59.4795C14.089 59.4795 14.3458 59.3807 14.5415 59.1834L24.0385 49.6034C24.43 49.2083 24.43 48.5682 24.0385 48.1731Z" fill="white"/>
</svg>
