<svg width="63" height="66" viewBox="0 0 63 66" fill="none" xmlns="http://www.w3.org/2000/svg">
<path d="M47.1266 0.283594C46.9447 0.103125 46.694 0 46.4381 0H21.7577C21.5005 0 21.2498 0.103125 21.0693 0.283594C20.8874 0.462773 20.7835 0.711434 20.7835 0.966797V5.32898C20.7835 5.86266 21.22 6.29707 21.7577 6.29707C22.2942 6.29707 22.732 5.86266 22.732 5.32898V1.93359H45.4639V20.6263H33.4485C33.3251 20.6263 33.2004 20.6508 33.0873 20.6959L27.9278 22.7416V21.5931C27.9278 21.3391 27.8239 21.0904 27.6421 20.9099C27.4615 20.7294 27.2095 20.6263 26.9536 20.6263H22.732V9.19617C22.732 8.66379 22.2942 8.23066 21.7577 8.23066C21.22 8.23066 20.7835 8.66379 20.7835 9.19617V21.5931C20.7835 21.8483 20.8874 22.0971 21.0693 22.2776C21.2497 22.4568 21.5005 22.5599 21.7576 22.5599H25.9793V24.1699C25.9793 24.4909 26.139 24.79 26.4066 24.9704C26.569 25.0787 26.7573 25.1367 26.9535 25.1367C27.0782 25.1367 27.2003 25.1134 27.3146 25.0671L33.6354 22.5599H46.4381C46.694 22.5599 46.9446 22.4568 47.1266 22.2776C47.3085 22.0972 47.4124 21.8484 47.4124 21.5931V0.966797C47.4124 0.711434 47.3085 0.462773 47.1266 0.283594Z" fill="white"/>
<path d="M58.1287 55.0433H55.2066L55.2076 52.9028C57.5933 50.8342 59.103 47.795 59.103 44.4123V40.7031C59.8642 36.9032 59.515 34.0853 58.0635 32.3283C57.1487 31.2208 56.0147 30.7986 55.2061 30.6407V26.3618C55.2061 25.8277 54.77 25.395 54.2318 25.395C53.8621 25.395 53.4834 25.3929 53.0978 25.391C52.6948 25.3888 52.2842 25.3867 51.8689 25.3867C47.1689 25.3867 41.8924 25.6818 38.758 29.2052C36.5034 31.7396 35.7227 35.4825 36.3709 40.6475V44.4124C36.3709 47.796 37.8813 50.836 40.268 52.9046V55.0435H37.3454C34.6594 55.0435 32.4742 57.212 32.4742 59.8775V65.0333C32.4742 65.5673 32.9103 66.0001 33.4485 66.0001H37.3454H43.8402H62.0256C62.5638 66.0001 62.9999 65.5673 62.9999 65.0333V59.8823C62.9999 59.8805 63 59.8791 63 59.8773C63 57.2117 60.8147 55.0433 58.1287 55.0433ZM40.2189 30.4847C42.8165 27.5646 47.5945 27.3201 51.8691 27.3201C52.2809 27.3201 52.688 27.3222 53.0877 27.3243C53.1446 27.3246 53.2012 27.3248 53.2579 27.3252V31.5179C53.2579 31.7847 53.3643 32.0401 53.5603 32.2229C53.7564 32.4057 54.0153 32.5003 54.2834 32.4833C54.3721 32.4781 55.6565 32.4643 56.557 33.5541C57.2219 34.3591 57.5537 35.5943 57.5463 37.1957L57.1228 36.3555C56.9084 35.9294 56.4128 35.7218 55.9557 35.8667C55.8978 35.885 50.1254 37.6979 46.7956 37.6979C43.6017 37.6979 40.7118 35.9795 40.6841 35.9628C40.2558 35.7027 39.6983 35.8089 39.3968 36.2076L38.1111 37.9089C38.0325 34.64 38.7382 32.149 40.2189 30.4847ZM38.3196 44.4121V40.8557L40.4525 38.0336C41.6538 38.6264 44.0901 39.6315 46.7956 39.6315C49.6812 39.6315 53.9771 38.4685 55.748 37.9503L57.1546 40.7423V44.4121C57.1546 49.5633 52.93 53.7542 47.7371 53.7542C42.5442 53.7542 38.3196 49.5633 38.3196 44.4121ZM53.2585 54.2647L53.2579 55.4924L50.2662 57.4721L48.7112 56.7013V55.6459C50.3501 55.5072 51.8907 55.022 53.2585 54.2647ZM46.7629 55.646V56.6446L44.6558 57.4809L42.2168 55.5452V54.2653C43.5842 55.0224 45.1244 55.5073 46.7629 55.646ZM42.866 64.0665H38.3197V62.1329H42.866V64.0665ZM61.0514 59.8773V64.0665H44.8144V61.1661C44.8144 60.632 44.3784 60.1993 43.8402 60.1993H37.3456C36.8075 60.1993 36.3714 60.632 36.3714 61.1661V64.0665H34.4229V59.8773C34.4229 58.2781 35.7341 56.9769 37.3456 56.9769H40.9009L43.8823 59.3427C43.8909 59.3495 43.9006 59.354 43.9093 59.3606C43.9369 59.3808 43.965 59.3997 43.9943 59.4169C44.0119 59.4274 44.0295 59.4376 44.0474 59.4467C44.0753 59.4608 44.104 59.4729 44.1329 59.4842C44.1522 59.4918 44.1713 59.5001 44.1909 59.5064C44.223 59.5167 44.2559 59.5241 44.289 59.531C44.3055 59.5345 44.3216 59.5394 44.3381 59.5421C44.3884 59.5501 44.4393 59.5547 44.4909 59.5547C44.5249 59.5547 44.5588 59.5524 44.5931 59.5489C44.5991 59.5482 44.605 59.547 44.6111 59.5462C44.6379 59.543 44.6645 59.5386 44.6913 59.5331C44.7022 59.5308 44.713 59.5279 44.7239 59.5252C44.7448 59.5201 44.7657 59.5144 44.7865 59.5077C44.8 59.5034 44.8135 59.4988 44.827 59.4939C44.8353 59.4909 44.844 59.4886 44.8524 59.4853L47.6927 58.3578L49.9011 59.4525C49.916 59.46 49.9315 59.4653 49.9465 59.4719C49.9642 59.4795 49.9815 59.4877 49.9993 59.4943C50.0237 59.5032 50.0481 59.51 50.0727 59.5168C50.0845 59.5201 50.096 59.5244 50.1079 59.5272C50.1424 59.5354 50.1768 59.5415 50.2116 59.546C50.2146 59.5462 50.2174 59.547 50.2202 59.5475C50.2587 59.552 50.2973 59.5546 50.3356 59.5546C50.3814 59.5546 50.4268 59.5513 50.4718 59.5449C50.4914 59.5421 50.5109 59.5367 50.5305 59.5327C50.5554 59.5277 50.5804 59.5234 50.6047 59.5166C50.6245 59.5108 50.6439 59.5028 50.6634 59.496C50.6877 59.4873 50.7119 59.4791 50.7354 59.4688C50.7525 59.4609 50.7692 59.4515 50.7861 59.4428C50.8114 59.4297 50.8366 59.4164 50.8607 59.4011C50.8659 59.3977 50.8717 59.3955 50.8769 59.3921L54.5268 56.9769H58.1289C59.7393 56.9769 61.0497 58.2762 61.0515 59.874C61.0515 59.8751 61.0514 59.8762 61.0514 59.8773Z" fill="white"/>
<path d="M25.6545 55.0431H21.4334L21.434 53.8764C24.5579 51.8648 26.6287 48.3739 26.6287 44.412V42.2814L27.9247 42.7407C28.0312 42.7785 28.142 42.797 28.2523 42.797C28.4507 42.797 28.6472 42.7368 28.8136 42.6205C29.0726 42.4394 29.2267 42.1448 29.2267 41.8302C29.2267 36.028 28.101 31.7196 25.8808 29.0251C24.0569 26.8114 21.5498 25.689 18.4289 25.689C14.7911 25.689 11.3821 27.2398 10.1708 27.8564L7.88773 26.7777C7.5978 26.6407 7.25851 26.6542 6.98092 26.8138C6.59019 27.0382 3.18936 29.2571 3.89678 37.999V44.412C3.89678 48.3744 5.96811 51.8656 9.09265 53.8772V55.0431H4.87113C2.18513 55.0431 0 57.2116 0 59.8771V65.0331C0 65.5671 0.436194 65.9999 0.974227 65.9999H29.5513C30.0893 65.9999 30.5255 65.5671 30.5255 65.0331V59.8821C30.5255 59.8803 30.5258 59.8789 30.5258 59.8771C30.5256 57.2116 28.3405 55.0431 25.6545 55.0431ZM7.62768 28.7964L9.77812 29.8124C10.0666 29.9489 10.4049 29.9355 10.6821 29.7779C10.72 29.7562 14.5168 27.6226 18.429 27.6226C24.0072 27.6226 26.9731 31.9369 27.256 40.4504L10.3946 34.4744C10.2884 34.4368 10.1776 34.4182 10.067 34.4182C9.91724 34.4182 9.76799 34.4525 9.63134 34.5203L5.76054 36.4409C5.61856 31.5974 6.96845 29.5172 7.62768 28.7964ZM5.84536 44.412V38.5604L10.1309 36.4341L24.6804 41.5907V44.412C24.6804 49.5632 20.4558 53.754 15.2629 53.754C10.07 53.754 5.84536 49.5632 5.84536 44.412ZM19.4851 54.8804L19.4844 56.0094V56.0096V56.0098C19.4844 58.3199 17.5905 60.1992 15.2628 60.1992C12.935 60.1992 11.0411 58.3199 11.0411 56.0098V54.8807C12.3471 55.4007 13.7718 55.6876 15.2628 55.6876C16.7541 55.6876 18.1789 55.4006 19.4851 54.8804ZM28.5771 59.8771V64.0663H28.5769H1.94845V59.8771C1.94845 58.2779 3.2595 56.9767 4.87113 56.9767H9.17046C9.63913 59.895 12.1923 62.1328 15.2629 62.1328C18.3335 62.1328 20.8866 59.895 21.3553 56.9767H25.6546C27.2651 56.9767 28.5754 58.2761 28.5772 59.8739C28.5772 59.8749 28.5771 59.8761 28.5771 59.8771Z" fill="white"/>
<path d="M37.0828 5.09291C36.2853 4.30271 35.2253 3.86701 34.0979 3.86572C32.9691 3.86701 31.909 4.30271 31.1129 5.09291C30.3153 5.88439 29.8763 6.93627 29.8763 8.05518C29.8763 8.58885 30.3127 9.02197 30.8505 9.02197C31.387 9.02197 31.8247 8.58885 31.8247 8.05518V8.05376C31.826 7.45177 32.0625 6.88716 32.4911 6.46177C32.9198 6.03638 33.4899 5.80048 34.0979 5.79919C34.7046 5.80048 35.2748 6.03638 35.7033 6.46177C36.1333 6.88716 36.3698 7.45293 36.3711 8.05505C36.3698 8.65833 36.1334 9.2241 35.7033 9.64949C35.2777 10.0719 34.7122 10.3072 34.1103 10.3116C34.1061 10.3114 34.102 10.3109 34.0978 10.3109C33.5599 10.3109 33.1236 10.7452 33.1236 11.279V13.8571C33.1236 14.3895 33.5599 14.8239 34.0978 14.8239C34.6343 14.8239 35.072 14.3895 35.072 13.8571V12.1321H35.0722C35.8271 11.9559 36.5204 11.5755 37.0828 11.0174C37.8791 10.2272 38.3183 9.17537 38.3196 8.05518C38.3183 6.93614 37.8791 5.88427 37.0828 5.09291Z" fill="white"/>
<path d="M34.0979 15.4688C33.56 15.4688 33.1237 15.9017 33.1237 16.4355V17.7233C33.1237 18.257 33.56 18.6901 34.0979 18.6901C34.6344 18.6901 35.0722 18.257 35.0722 17.7233V16.4355C35.0722 15.9017 34.6343 15.4688 34.0979 15.4688Z" fill="white"/>
</svg>
