<svg width="61" height="66" viewBox="0 0 61 66" fill="none" xmlns="http://www.w3.org/2000/svg">
<path d="M54.1925 47.5569L50.052 46.5143C50.0225 46.0957 49.7487 45.7162 49.329 45.5753L42.8445 43.3984C42.6019 43.0103 42.2799 42.6661 41.8807 42.3979L40.2695 41.316C43.9285 37.7755 46.2807 32.2967 46.2807 26.1577C46.2807 25.2629 46.1774 24.3225 46.0087 23.3754C46.0324 23.3073 46.0496 23.2357 46.0594 23.1613C46.0663 23.108 46.7627 17.753 47.1512 11.3188C47.3068 8.74208 46.5055 6.2231 44.895 4.22585C43.2796 2.22262 40.9937 0.923857 38.4583 0.568911C35.7609 0.191443 33.0834 0 30.5 0C28.4445 0 23.391 0.340406 19.8983 3.42117H19.5029C17.6406 3.42117 15.8453 4.20818 14.577 5.58021C13.3127 6.9481 12.6637 8.80081 12.7961 10.6633C13.0919 14.8223 13.6453 20.7274 14.6011 25.2404C14.6261 25.3584 14.671 25.4669 14.7292 25.5649C14.7244 25.7622 14.7193 25.9594 14.7193 26.1577C14.7193 32.2967 17.0715 37.7755 20.7305 41.316L19.1192 42.3979C18.7199 42.6661 18.3979 43.0103 18.1554 43.3984L11.6708 45.5753C11.2512 45.7162 10.9773 46.0958 10.9479 46.5145L6.80737 47.5571C2.79935 48.5662 0 52.1772 0 56.3385V62.6501C0 64.4973 1.49202 66 3.32599 66H57.674C59.508 66 61 64.4973 61 62.6501V56.3385C61 52.1773 58.2007 48.5662 54.1925 47.5569ZM42.0716 52.9796L43.9919 55.8809L39.9672 63.8618H37.2254C37.2059 62.309 37.299 58.9344 38.3199 56.1818C38.335 56.1412 38.3466 56.1 38.3565 56.0588C38.3653 56.0413 38.3741 56.0237 38.383 56.0059L40.031 52.6884C41.0234 50.689 42.2147 48.288 43.0117 46.6814C43.1519 46.3987 43.2487 46.1043 43.3043 45.8064L47.6571 47.2677L46.6572 50.3523L42.6976 51.3493C42.3627 51.4335 42.0894 51.6766 41.9649 52.0009C41.8402 52.3253 41.8801 52.6904 42.0716 52.9796ZM33.7177 63.8618L32.7944 56.538C33.4129 56.1469 33.826 55.4557 33.826 54.6674V54.264C34.5311 54.7669 35.2992 55.3833 36.0935 56.1306C35.1751 59.0416 35.0801 62.2681 35.1005 63.8618H33.7177V63.8618ZM25.9314 63.8618C25.9517 62.2638 25.8562 59.0247 24.931 56.1076C25.7167 55.3706 26.4761 54.7616 27.174 54.2638V54.6674C27.174 55.4557 27.5873 56.1469 28.2056 56.538L27.2823 63.8618H25.9314ZM30.4999 52.3849C30.7621 52.4901 31.1765 52.671 31.703 52.9481V54.6674C31.703 54.7067 31.6713 54.7387 31.6322 54.7387H29.3677C29.3287 54.7387 29.297 54.7067 29.297 54.6674V52.948C29.8238 52.6707 30.2383 52.4898 30.4999 52.3849ZM30.303 56.8769H30.697L31.5776 63.8618H29.4224L30.303 56.8769ZM41.1124 45.7257C39.1386 49.7044 37.7314 52.54 36.9799 54.0526C35.1592 52.4402 33.5 51.4509 32.3618 50.8829L39.6932 43.4988L40.703 44.1769C41.2067 44.5151 41.3828 45.1809 41.1124 45.7257ZM44.087 26.2289H40.6195V25.0173C40.6195 24.4268 40.1442 23.9482 39.558 23.9482H32.7645C32.1783 23.9482 31.703 24.4268 31.703 25.0173V25.3162C31.3297 25.1698 30.9242 25.0886 30.5 25.0886C30.0758 25.0886 29.6703 25.1698 29.297 25.3162V25.0173C29.297 24.4268 28.8217 23.9482 28.2355 23.9482H21.442C20.8558 23.9482 20.3805 24.4268 20.3805 25.0173V26.2289H16.913C16.8894 26.2289 16.8663 26.2309 16.8429 26.2325C16.8428 26.2076 16.8422 26.1828 16.8422 26.1577C16.8422 22.4678 17.7541 18.9822 19.4863 16.0236C26.168 18.1179 33.6631 18.1117 41.5829 18.1044L42.24 18.1041C43.0554 20.1806 44.1578 23.4832 44.1578 26.1577C44.1578 26.1826 44.1571 26.2076 44.1571 26.2325C44.1337 26.2309 44.1106 26.2289 44.087 26.2289ZM14.9137 10.5104C14.8219 9.21919 15.2541 7.98571 16.1309 7.03705C17.0116 6.08426 18.2091 5.5594 19.5029 5.5594H20.3097C20.5823 5.5594 20.8444 5.45377 21.0417 5.26446C23.9833 2.44286 28.6362 2.13823 30.5 2.13823C32.9859 2.13823 35.5653 2.32283 38.1662 2.6869C40.1673 2.96701 41.9717 3.99236 43.247 5.57394C44.5214 7.15437 45.1553 9.14848 45.032 11.1891C44.8784 13.7316 44.6765 16.1016 44.4888 18.035C44.303 17.5376 44.116 17.0631 43.9349 16.6242C43.7703 16.2255 43.3835 15.9654 42.9548 15.9654L41.5811 15.9662C33.5248 15.9737 25.914 15.9797 19.3654 13.7356C18.906 13.5782 18.3995 13.7544 18.1345 14.1635C17.1236 15.7241 16.3306 17.4288 15.7628 19.2339C15.3645 16.1624 15.0919 13.0163 14.9137 10.5104ZM16.9549 28.3672H20.3805V28.4384C20.3805 29.0289 20.8558 29.5076 21.442 29.5076C22.0282 29.5076 22.5035 29.0289 22.5035 28.4384V26.0864H23.7773V27.2981C23.7773 27.8885 24.2525 28.3672 24.8387 28.3672C25.425 28.3672 25.9002 27.8885 25.9002 27.2981V26.0864H27.174V28.4384C27.174 29.0289 27.6493 29.5076 28.2355 29.5076C28.8217 29.5076 29.297 29.0289 29.297 28.4384C29.297 27.7703 29.8366 27.2268 30.5 27.2268C31.1634 27.2268 31.703 27.7703 31.703 28.4384C31.703 29.0289 32.1783 29.5076 32.7645 29.5076C33.3507 29.5076 33.826 29.0289 33.826 28.4384V26.0864H35.0998V27.2981C35.0998 27.8885 35.575 28.3672 36.1613 28.3672C36.7475 28.3672 37.2227 27.8885 37.2227 27.2981V26.0864H38.4965V28.4384C38.4965 29.0289 38.9718 29.5076 39.558 29.5076C40.1442 29.5076 40.6195 29.0289 40.6195 28.4384V28.3672H44.0451C43.1804 36.7989 37.4357 43.3348 30.5 43.3348C23.5643 43.3348 17.8196 36.7989 16.9549 28.3672ZM30.5 45.473C32.3879 45.473 34.1991 45.0646 35.8785 44.3171L30.5 49.7343L25.1215 44.3172C26.8009 45.0646 28.6121 45.473 30.5 45.473ZM20.2969 44.1769L21.3068 43.4988L28.6382 50.8829C27.5 51.4509 25.8406 52.4402 24.0201 54.0526C23.254 52.5105 21.8197 49.6203 19.8877 45.7257C19.6172 45.1809 19.7933 44.5151 20.2969 44.1769ZM17.6958 45.8064C17.7514 46.1043 17.8482 46.3989 17.9885 46.6814C18.7855 48.288 19.9766 50.689 20.9691 52.6884L22.6171 56.0059C22.6529 56.0778 22.6879 56.1476 22.724 56.2149C23.7304 58.9538 23.8245 62.3131 23.806 63.8618H21.0334L17.0084 55.8808L18.9287 52.9796C19.1202 52.6904 19.1601 52.3253 19.0355 52.001C18.911 51.6767 18.6377 51.4337 18.3028 51.3494L14.3432 50.3524L13.3431 47.2678L17.6958 45.8064ZM2.12297 62.6501V56.3385C2.12297 53.1602 4.26108 50.402 7.32241 49.6313L11.5324 48.5712L12.5073 51.5779C12.6206 51.9276 12.9045 52.194 13.2589 52.2833L16.3266 53.0557L14.8976 55.2148C14.685 55.5359 14.6608 55.9478 14.8343 56.292L18.6521 63.8618H12.3132V60.3693C12.3132 59.7789 11.838 59.3002 11.2517 59.3002C10.6655 59.3002 10.1903 59.7789 10.1903 60.3693V63.8618H3.32599C2.66263 63.8618 2.12297 63.3182 2.12297 62.6501ZM58.877 62.6501C58.877 63.3182 58.3374 63.8618 57.674 63.8618H50.8097V60.3693C50.8097 59.7789 50.3345 59.3002 49.7483 59.3002C49.162 59.3002 48.6868 59.7789 48.6868 60.3693V63.8618H42.3483L46.1657 56.2919C46.3393 55.9476 46.3151 55.5359 46.1024 55.2146L44.6735 53.0557L47.7412 52.2833C48.0956 52.1942 48.3795 51.9276 48.4929 51.5779L49.4677 48.571L53.6777 49.631C56.7391 50.4019 58.8772 53.1599 58.8772 56.3382V62.6501H58.877Z" fill="white"/>
<path d="M25.3739 37.2739C26.632 38.1361 28.5005 38.6308 30.5 38.6308C32.4996 38.6308 34.3681 38.1361 35.6261 37.2739C36.1109 36.9416 36.2364 36.2766 35.9065 35.7885C35.5766 35.3003 34.9164 35.1741 34.4318 35.5061C33.5305 36.1238 32.0607 36.4925 30.4999 36.4925C28.9391 36.4925 27.4693 36.1238 26.568 35.5061C26.0834 35.174 25.4231 35.3004 25.0932 35.7885C24.7636 36.2766 24.8891 36.9416 25.3739 37.2739Z" fill="white"/>
</svg>
