<svg width="466" height="89" viewBox="0 0 466 89" fill="none" xmlns="http://www.w3.org/2000/svg">
<path d="M26.352 43V37H13.296C21.6 30.952 26.112 26.2 26.112 20.728C26.112 14.344 20.688 10.504 13.872 10.504C9.408 10.504 4.656 12.136 1.536 15.736L5.424 20.248C7.584 17.992 10.368 16.552 14.016 16.552C16.656 16.552 19.2 17.944 19.2 20.728C19.2 24.664 15.36 27.976 2.256 37.672V43H26.352ZM56.0933 43V37H43.0372C51.3412 30.952 55.8533 26.2 55.8533 20.728C55.8533 14.344 50.4292 10.504 43.6132 10.504C39.1492 10.504 34.3972 12.136 31.2772 15.736L35.1652 20.248C37.3252 17.992 40.1092 16.552 43.7572 16.552C46.3972 16.552 48.9412 17.944 48.9412 20.728C48.9412 24.664 45.1012 27.976 31.9972 37.672V43H56.0933ZM72.7785 43L84.6825 15.736V10.984H60.6345V16.984H76.7625L65.2905 43H72.7785ZM101.479 43.576C110.599 43.576 114.727 35.272 114.727 27.016C114.727 18.76 110.599 10.504 101.479 10.504C92.3107 10.504 88.2307 18.76 88.2307 27.016C88.2307 35.272 92.3107 43.576 101.479 43.576ZM101.479 37.528C96.8707 37.528 95.1427 32.92 95.1427 27.016C95.1427 21.112 96.8707 16.552 101.479 16.552C106.039 16.552 107.767 21.112 107.767 27.016C107.767 32.92 106.039 37.528 101.479 37.528Z" fill="#333333"/>
<path d="M125.292 25.672H128.268V23.032C132.54 22.552 134.892 20.344 134.892 17.032C134.892 13 131.436 11.848 128.268 11.128V6.904C129.564 7.288 130.764 7.96 131.628 8.776L134.172 6.136C132.972 4.792 131.004 3.784 128.268 3.448V0.663999H125.292V3.352C121.02 3.688 118.476 6.28 118.476 9.064C118.476 13.288 122.076 14.296 125.292 15.016V19.528C123.42 19.192 121.836 18.136 120.684 17.032L118.14 20.008C119.676 21.688 122.076 22.84 125.292 23.08V25.672ZM123.228 8.632C123.228 7.768 123.996 7.048 125.292 6.76V10.408C124.044 10.024 123.228 9.544 123.228 8.632ZM130.14 17.608C130.14 18.424 129.468 19.144 128.268 19.48V15.736C129.372 16.12 130.14 16.648 130.14 17.608Z" fill="url(#paint0_linear_0_1)"/>
<path d="M2.254 71V67.29H4.844C6.692 67.29 7.77 66.002 7.77 64.476C7.77 62.95 6.72 61.662 4.844 61.662H1.092V71H2.254ZM4.704 66.254H2.254V62.698H4.704C5.81 62.698 6.566 63.426 6.566 64.476C6.566 65.526 5.81 66.254 4.704 66.254ZM14.2714 71V66.352C14.2714 64.714 13.0814 64.07 11.6534 64.07C10.5474 64.07 9.67936 64.434 8.95136 65.19L9.44136 65.918C10.0434 65.274 10.7014 64.98 11.5134 64.98C12.4934 64.98 13.2214 65.498 13.2214 66.408V67.626C12.6754 66.996 11.9054 66.702 10.9814 66.702C9.83336 66.702 8.61536 67.416 8.61536 68.928C8.61536 70.398 9.83336 71.168 10.9814 71.168C11.8914 71.168 12.6614 70.846 13.2214 70.23V71H14.2714ZM11.3594 70.412C10.3794 70.412 9.69336 69.796 9.69336 68.942C9.69336 68.074 10.3794 67.458 11.3594 67.458C12.1014 67.458 12.8154 67.738 13.2214 68.298V69.572C12.8154 70.132 12.1014 70.412 11.3594 70.412ZM18.7702 71.168C20.7162 71.168 21.8642 70.328 21.8642 69.194C21.8642 68.074 20.6882 67.598 19.9042 67.542C20.7022 67.444 21.7242 66.898 21.7242 65.89C21.7242 64.742 20.4362 64.07 18.6162 64.084C17.3842 64.084 16.4742 64.518 15.8442 65.162L16.3902 65.806C16.9642 65.218 17.7062 64.938 18.6582 64.938C19.7782 64.938 20.6322 65.372 20.6322 66.016C20.6322 66.786 19.7502 67.15 18.6302 67.15H17.1182V68.004H18.6302C19.8202 68.004 20.7582 68.284 20.7582 69.124C20.7582 69.838 19.9742 70.3 18.7702 70.3C17.7622 70.3 16.8662 69.992 16.2362 69.39L15.7182 70.062C16.3902 70.734 17.4122 71.168 18.7702 71.168ZM30.4696 71V64.238H29.0696L27.0256 69.25L24.9536 64.238H23.5676V71H24.6176V65.694L26.8296 71H27.2216L29.4196 65.694V71H30.4696ZM35.6157 71.168C36.7217 71.168 37.6317 70.804 38.3037 70.132L37.7997 69.446C37.2677 69.992 36.4837 70.3 35.7137 70.3C34.2577 70.3 33.3617 69.236 33.2777 67.962H38.7517V67.696C38.7517 65.666 37.5477 64.07 35.5037 64.07C33.5717 64.07 32.1717 65.652 32.1717 67.612C32.1717 69.726 33.6137 71.168 35.6157 71.168ZM37.7157 67.192H33.2777C33.3337 66.156 34.0477 64.938 35.4897 64.938C37.0297 64.938 37.7017 66.184 37.7157 67.192ZM48.2643 64.238V70.076H45.4083V64.238H44.3583V70.076H41.5023V64.238H40.4523V71H49.1323V72.722H50.1823V70.076H49.3143V64.238H48.2643ZM54.6743 71.168C55.7803 71.168 56.6903 70.804 57.3623 70.132L56.8583 69.446C56.3263 69.992 55.5423 70.3 54.7723 70.3C53.3163 70.3 52.4203 69.236 52.3363 67.962H57.8103V67.696C57.8103 65.666 56.6063 64.07 54.5623 64.07C52.6303 64.07 51.2303 65.652 51.2303 67.612C51.2303 69.726 52.6723 71.168 54.6743 71.168ZM56.7743 67.192H52.3363C52.3923 66.156 53.1063 64.938 54.5483 64.938C56.0883 64.938 56.7603 66.184 56.7743 67.192ZM60.5609 71V67.976H64.0889V71H65.1389V64.238H64.0889V67.052H60.5609V64.238H59.5109V71H60.5609ZM68.2435 71L71.8135 65.736V71H72.8635V64.238H71.8275L68.2855 69.404V64.238H67.2355V71H68.2435ZM78.0122 71.168C79.1182 71.168 80.0282 70.804 80.7002 70.132L80.1962 69.446C79.6642 69.992 78.8802 70.3 78.1102 70.3C76.6542 70.3 75.7582 69.236 75.6742 67.962H81.1482V67.696C81.1482 65.666 79.9442 64.07 77.9002 64.07C75.9682 64.07 74.5682 65.652 74.5682 67.612C74.5682 69.726 76.0102 71.168 78.0122 71.168ZM80.1122 67.192H75.6742C75.7302 66.156 76.4442 64.938 77.8862 64.938C79.4262 64.938 80.0982 66.184 80.1122 67.192ZM87.5082 71V67.976H91.0362V71H92.0862V64.238H91.0362V67.052H87.5082V64.238H86.4582V71H87.5082ZM99.4608 71V66.352C99.4608 64.714 98.2708 64.07 96.8428 64.07C95.7368 64.07 94.8688 64.434 94.1408 65.19L94.6308 65.918C95.2328 65.274 95.8908 64.98 96.7028 64.98C97.6828 64.98 98.4108 65.498 98.4108 66.408V67.626C97.8648 66.996 97.0948 66.702 96.1708 66.702C95.0228 66.702 93.8048 67.416 93.8048 68.928C93.8048 70.398 95.0228 71.168 96.1708 71.168C97.0808 71.168 97.8508 70.846 98.4108 70.23V71H99.4608ZM96.5488 70.412C95.5688 70.412 94.8828 69.796 94.8828 68.942C94.8828 68.074 95.5688 67.458 96.5488 67.458C97.2908 67.458 98.0048 67.738 98.4108 68.298V69.572C98.0048 70.132 97.2908 70.412 96.5488 70.412ZM6.65 88L4.046 84.528L6.496 81.238H5.278L3.402 83.814L1.526 81.238H0.308L2.758 84.528L0.168 88H1.372L3.402 85.228L5.432 88H6.65ZM10.2931 88.168C12.3511 88.168 13.6391 86.572 13.6391 84.612C13.6391 82.652 12.3511 81.07 10.2931 81.07C8.23506 81.07 6.94706 82.652 6.94706 84.612C6.94706 86.572 8.23506 88.168 10.2931 88.168ZM10.2931 87.23C8.85106 87.23 8.03906 85.998 8.03906 84.612C8.03906 83.24 8.85106 82.008 10.2931 82.008C11.7351 82.008 12.5331 83.24 12.5331 84.612C12.5331 85.998 11.7351 87.23 10.2931 87.23ZM18.3328 88.168C19.5648 88.168 20.2928 87.664 20.8108 86.992L20.1108 86.348C19.6628 86.95 19.0888 87.23 18.3888 87.23C16.9468 87.23 16.0508 86.11 16.0508 84.612C16.0508 83.114 16.9468 82.008 18.3888 82.008C19.0888 82.008 19.6628 82.274 20.1108 82.89L20.8108 82.246C20.2928 81.574 19.5648 81.07 18.3328 81.07C16.3168 81.07 14.9588 82.61 14.9588 84.612C14.9588 86.628 16.3168 88.168 18.3328 88.168ZM24.5644 88V82.162H26.5384V81.238H21.5544V82.162H23.5144V88H24.5644ZM28.9232 88L32.4932 82.736V88H33.5432V81.238H32.5072L28.9652 86.404V81.238H27.9152V88H28.9232ZM36.6898 88V84.976H40.2178V88H41.2678V81.238H40.2178V84.052H36.6898V81.238H35.6398V88H36.6898ZM48.0965 81.238H43.3645V88H44.4145V82.162H48.0965V81.238ZM52.5141 88.168C53.6201 88.168 54.5301 87.804 55.2021 87.132L54.6981 86.446C54.1661 86.992 53.3821 87.3 52.6121 87.3C51.1561 87.3 50.2601 86.236 50.1761 84.962H55.6501V84.696C55.6501 82.666 54.4461 81.07 52.4021 81.07C50.4701 81.07 49.0701 82.652 49.0701 84.612C49.0701 86.726 50.5121 88.168 52.5141 88.168ZM54.6141 84.192H50.1761C50.2321 83.156 50.9461 81.938 52.3881 81.938C53.9281 81.938 54.6001 83.184 54.6141 84.192ZM66.9102 88L63.9002 84.304L66.8962 81.238H65.5662L62.0102 84.836V81.238H60.9602V88H62.0102V86.068L63.1302 84.962L65.5662 88H66.9102ZM71.0645 88.168C73.1225 88.168 74.4105 86.572 74.4105 84.612C74.4105 82.652 73.1225 81.07 71.0645 81.07C69.0065 81.07 67.7185 82.652 67.7185 84.612C67.7185 86.572 69.0065 88.168 71.0645 88.168ZM71.0645 87.23C69.6225 87.23 68.8105 85.998 68.8105 84.612C68.8105 83.24 69.6225 82.008 71.0645 82.008C72.5065 82.008 73.3045 83.24 73.3045 84.612C73.3045 85.998 72.5065 87.23 71.0645 87.23ZM83.0243 88V81.238H81.6243L79.5803 86.25L77.5083 81.238H76.1223V88H77.1723V82.694L79.3843 88H79.7763L81.9743 82.694V88H83.0243ZM90.7464 88V81.238H85.1184V88H86.1684V82.162H89.6964V88H90.7464ZM98.121 88V83.352C98.121 81.714 96.931 81.07 95.503 81.07C94.397 81.07 93.529 81.434 92.801 82.19L93.291 82.918C93.893 82.274 94.551 81.98 95.363 81.98C96.343 81.98 97.071 82.498 97.071 83.408V84.626C96.525 83.996 95.755 83.702 94.831 83.702C93.683 83.702 92.465 84.416 92.465 85.928C92.465 87.398 93.683 88.168 94.831 88.168C95.741 88.168 96.511 87.846 97.071 87.23V88H98.121ZM95.209 87.412C94.229 87.412 93.543 86.796 93.543 85.942C93.543 85.074 94.229 84.458 95.209 84.458C95.951 84.458 96.665 84.738 97.071 85.298V86.572C96.665 87.132 95.951 87.412 95.209 87.412ZM101.276 88V84.976H104.804V88H105.854V81.238H104.804V84.052H101.276V81.238H100.226V88H101.276ZM108.958 88L112.528 82.736V88H113.578V81.238H112.542L109 86.404V81.238H107.95V88H108.958ZM116.683 88L120.253 82.736V88H121.303V81.238H120.267L116.725 86.404V81.238H115.675V88H116.683Z" fill="#333333"/>
<path d="M356.352 43V37H343.296C351.6 30.952 356.112 26.2 356.112 20.728C356.112 14.344 350.688 10.504 343.872 10.504C339.408 10.504 334.656 12.136 331.536 15.736L335.424 20.248C337.584 17.992 340.368 16.552 344.016 16.552C346.656 16.552 349.2 17.944 349.2 20.728C349.2 24.664 345.36 27.976 332.256 37.672V43H356.352ZM373.037 43L384.941 15.736V10.984H360.893V16.984H377.021L365.549 43H373.037ZM400.153 43L412.057 15.736V10.984H388.009V16.984H404.137L392.665 43H400.153ZM428.854 43.576C437.974 43.576 442.102 35.272 442.102 27.016C442.102 18.76 437.974 10.504 428.854 10.504C419.686 10.504 415.606 18.76 415.606 27.016C415.606 35.272 419.686 43.576 428.854 43.576ZM428.854 37.528C424.246 37.528 422.518 32.92 422.518 27.016C422.518 21.112 424.246 16.552 428.854 16.552C433.414 16.552 435.142 21.112 435.142 27.016C435.142 32.92 433.414 37.528 428.854 37.528Z" fill="#333333"/>
<path d="M452.667 25.672H455.643V23.032C459.915 22.552 462.267 20.344 462.267 17.032C462.267 13 458.811 11.848 455.643 11.128V6.904C456.939 7.288 458.139 7.96 459.003 8.776L461.547 6.136C460.347 4.792 458.379 3.784 455.643 3.448V0.663999H452.667V3.352C448.395 3.688 445.851 6.28 445.851 9.064C445.851 13.288 449.451 14.296 452.667 15.016V19.528C450.795 19.192 449.211 18.136 448.059 17.032L445.515 20.008C447.051 21.688 449.451 22.84 452.667 23.08V25.672ZM450.603 8.632C450.603 7.768 451.371 7.048 452.667 6.76V10.408C451.419 10.024 450.603 9.544 450.603 8.632ZM457.515 17.608C457.515 18.424 456.843 19.144 455.643 19.48V15.736C456.747 16.12 457.515 16.648 457.515 17.608Z" fill="url(#paint1_linear_0_1)"/>
<path d="M330.212 76L335.658 68.552V76H336.82V66.662H335.63L330.254 73.956V66.662H329.092V76H330.212ZM341.356 76.168C343.302 76.168 344.45 75.328 344.45 74.194C344.45 73.074 343.274 72.598 342.49 72.542C343.288 72.444 344.31 71.898 344.31 70.89C344.31 69.742 343.022 69.07 341.202 69.084C339.97 69.084 339.06 69.518 338.43 70.162L338.976 70.806C339.55 70.218 340.292 69.938 341.244 69.938C342.364 69.938 343.218 70.372 343.218 71.016C343.218 71.786 342.336 72.15 341.216 72.15H339.704V73.004H341.216C342.406 73.004 343.344 73.284 343.344 74.124C343.344 74.838 342.56 75.3 341.356 75.3C340.348 75.3 339.452 74.992 338.822 74.39L338.304 75.062C338.976 75.734 339.998 76.168 341.356 76.168ZM350.813 76V72.976H354.341V76H355.391V69.238H354.341V72.052H350.813V69.238H349.763V76H350.813ZM362.765 76V71.352C362.765 69.714 361.576 69.07 360.147 69.07C359.042 69.07 358.173 69.434 357.445 70.19L357.936 70.918C358.538 70.274 359.195 69.98 360.007 69.98C360.987 69.98 361.716 70.498 361.716 71.408V72.626C361.169 71.996 360.399 71.702 359.475 71.702C358.328 71.702 357.11 72.416 357.11 73.928C357.11 75.398 358.328 76.168 359.475 76.168C360.386 76.168 361.156 75.846 361.716 75.23V76H362.765ZM359.854 75.412C358.873 75.412 358.188 74.796 358.188 73.942C358.188 73.074 358.873 72.458 359.854 72.458C360.595 72.458 361.309 72.738 361.716 73.298V74.572C361.309 75.132 360.595 75.412 359.854 75.412ZM364.072 76.168C365.374 76.168 366.102 75.216 366.41 72.696L366.718 70.162H369.448V76H370.498V69.238H365.794L365.36 72.57C365.094 74.572 364.702 75.3 364.072 75.3V76.168ZM373.603 76L377.173 70.736V76H378.223V69.238H377.187L373.645 74.404V69.238H372.595V76H373.603ZM380.18 69.238V71.464C380.18 73.004 380.922 73.69 382.686 73.69C383.456 73.69 384.24 73.494 384.744 73.242V76H385.794V69.238H384.744V72.388C384.338 72.598 383.652 72.752 382.952 72.752C381.832 72.752 381.23 72.402 381.23 71.142V69.238H380.18ZM388.902 76L392.472 70.736V76H393.522V69.238H392.486L388.944 74.404V69.238H387.894V76H388.902ZM396.626 76L398.278 73.382H400.126V76H401.176V69.238H397.606C396.234 69.238 395.464 70.162 395.464 71.31C395.464 72.444 396.192 73.214 397.2 73.34L395.394 76H396.626ZM397.718 72.458C396.948 72.458 396.542 71.982 396.542 71.31C396.542 70.638 396.976 70.162 397.718 70.162H400.126V72.458H397.718ZM410.678 76C411.924 76 412.652 75.258 412.652 74.166C412.652 73.396 412.106 72.682 411.42 72.514C411.994 72.332 412.512 71.786 412.512 70.974C412.512 69.952 411.798 69.238 410.608 69.238H406.884V76H410.678ZM410.468 75.076H407.934V72.99H410.468C411.182 72.99 411.56 73.494 411.56 74.04C411.56 74.684 411.14 75.076 410.468 75.076ZM410.426 72.066H407.934V70.162H410.426C411.07 70.162 411.434 70.54 411.434 71.128C411.434 71.66 411.084 72.066 410.426 72.066ZM427.429 76V66.662H425.763L422.851 73.69L419.953 66.662H418.287V76H419.449V68.314L422.613 76H423.089L426.267 68.314V76H427.429ZM432.52 76.168C434.578 76.168 435.866 74.572 435.866 72.612C435.866 70.652 434.578 69.07 432.52 69.07C430.462 69.07 429.174 70.652 429.174 72.612C429.174 74.572 430.462 76.168 432.52 76.168ZM432.52 75.23C431.078 75.23 430.266 73.998 430.266 72.612C430.266 71.24 431.078 70.008 432.52 70.008C433.962 70.008 434.76 71.24 434.76 72.612C434.76 73.998 433.962 75.23 432.52 75.23ZM440.559 76.168C441.791 76.168 442.519 75.664 443.037 74.992L442.337 74.348C441.889 74.95 441.315 75.23 440.615 75.23C439.173 75.23 438.277 74.11 438.277 72.612C438.277 71.114 439.173 70.008 440.615 70.008C441.315 70.008 441.889 70.274 442.337 70.89L443.037 70.246C442.519 69.574 441.791 69.07 440.559 69.07C438.543 69.07 437.185 70.61 437.185 72.612C437.185 74.628 438.543 76.168 440.559 76.168ZM450.459 76L447.449 72.304L450.445 69.238H449.115L445.559 72.836V69.238H444.509V76H445.559V74.068L446.679 72.962L449.115 76H450.459ZM455.494 76C456.74 76 457.468 75.258 457.468 74.166C457.468 73.396 456.922 72.682 456.236 72.514C456.81 72.332 457.328 71.786 457.328 70.974C457.328 69.952 456.614 69.238 455.424 69.238H451.7V76H455.494ZM455.284 75.076H452.75V72.99H455.284C455.998 72.99 456.376 73.494 456.376 74.04C456.376 74.684 455.956 75.076 455.284 75.076ZM455.242 72.066H452.75V70.162H455.242C455.886 70.162 456.25 70.54 456.25 71.128C456.25 71.66 455.9 72.066 455.242 72.066ZM462.504 76.168C463.61 76.168 464.52 75.804 465.192 75.132L464.688 74.446C464.156 74.992 463.372 75.3 462.602 75.3C461.146 75.3 460.25 74.236 460.166 72.962H465.64V72.696C465.64 70.666 464.436 69.07 462.392 69.07C460.46 69.07 459.06 70.652 459.06 72.612C459.06 74.726 460.502 76.168 462.504 76.168ZM464.604 72.192H460.166C460.222 71.156 460.936 69.938 462.378 69.938C463.918 69.938 464.59 71.184 464.604 72.192Z" fill="#333333"/>
<defs>
<linearGradient id="paint0_linear_0_1" x1="68.5" y1="-1" x2="68.5" y2="58" gradientUnits="userSpaceOnUse">
<stop stop-color="#F2A04A"/>
<stop offset="1" stop-color="#F2C24D"/>
</linearGradient>
<linearGradient id="paint1_linear_0_1" x1="397.5" y1="-1" x2="397.5" y2="58" gradientUnits="userSpaceOnUse">
<stop stop-color="#F2A04A"/>
<stop offset="1" stop-color="#F2C24D"/>
</linearGradient>
</defs>
</svg>
