<svg width="901" height="885" viewBox="0 0 901 885" fill="none" xmlns="http://www.w3.org/2000/svg">
<path d="M727.5 443.5C727.5 593.167 605.948 714.5 456 714.5C306.052 714.5 184.5 593.167 184.5 443.5C184.5 293.833 306.052 172.5 456 172.5C605.948 172.5 727.5 293.833 727.5 443.5Z" stroke="white" stroke-width="3"/>
<circle cx="455.5" cy="443.5" r="358" stroke="white" stroke-width="3"/>
<circle cx="455.5" cy="442.5" r="441" stroke="white" stroke-width="3"/>
<path d="M455.248 469.5C440.612 469.5 428.5 457.388 428.5 442.752C428.5 427.823 440.605 415.5 455.5 415.5C470.412 415.5 482.5 427.588 482.5 442.5C482.5 457.395 470.177 469.5 455.248 469.5Z" fill="url(#paint0_linear_0_1)" stroke="#F4F8FA" stroke-width="3"/>
<rect x="668.5" y="278.5" width="17" height="17" fill="url(#paint1_linear_0_1)" stroke="#F4F8FA" stroke-width="3"/>
<rect x="668.5" y="593.5" width="17" height="17" fill="url(#paint2_linear_0_1)" stroke="#F4F8FA" stroke-width="3"/>
<rect x="228.5" y="593.5" width="17" height="17" fill="url(#paint3_linear_0_1)" stroke="#F4F8FA" stroke-width="3"/>
<rect x="228.5" y="278.5" width="17" height="17" fill="url(#paint4_linear_0_1)" stroke="#F4F8FA" stroke-width="3"/>
<rect x="879.5" y="495.5" width="17" height="17" fill="url(#paint5_linear_0_1)" stroke="#F4F8FA" stroke-width="3"/>
<rect x="879.5" y="371.5" width="17" height="17" fill="url(#paint6_linear_0_1)" stroke="#F4F8FA" stroke-width="3"/>
<rect x="4.5" y="495.5" width="17" height="17" fill="url(#paint7_linear_0_1)" stroke="#F4F8FA" stroke-width="3"/>
<rect x="4.5" y="371.5" width="17" height="17" fill="url(#paint8_linear_0_1)" stroke="#F4F8FA" stroke-width="3"/>
<rect x="665.5" y="275.5" width="23" height="23" stroke="black" stroke-width="3"/>
<rect x="665.5" y="275.5" width="23" height="23" stroke="url(#paint9_linear_0_1)" stroke-width="3"/>
<rect x="1.5" y="492.5" width="23" height="23" stroke="black" stroke-width="3"/>
<rect x="1.5" y="492.5" width="23" height="23" stroke="url(#paint10_linear_0_1)" stroke-width="3"/>
<rect x="1.5" y="368.5" width="23" height="23" stroke="black" stroke-width="3"/>
<rect x="1.5" y="368.5" width="23" height="23" stroke="url(#paint11_linear_0_1)" stroke-width="3"/>
<rect x="876.5" y="492.5" width="23" height="23" stroke="black" stroke-width="3"/>
<rect x="876.5" y="492.5" width="23" height="23" stroke="url(#paint12_linear_0_1)" stroke-width="3"/>
<rect x="876.5" y="368.5" width="23" height="23" stroke="black" stroke-width="3"/>
<rect x="876.5" y="368.5" width="23" height="23" stroke="url(#paint13_linear_0_1)" stroke-width="3"/>
<rect x="665.5" y="590.5" width="23" height="23" stroke="black" stroke-width="3"/>
<rect x="665.5" y="590.5" width="23" height="23" stroke="url(#paint14_linear_0_1)" stroke-width="3"/>
<rect x="225.5" y="590.5" width="23" height="23" stroke="black" stroke-width="3"/>
<rect x="225.5" y="590.5" width="23" height="23" stroke="url(#paint15_linear_0_1)" stroke-width="3"/>
<rect x="225.5" y="275.5" width="23" height="23" stroke="black" stroke-width="3"/>
<rect x="225.5" y="275.5" width="23" height="23" stroke="url(#paint16_linear_0_1)" stroke-width="3"/>
<path d="M455.5 472.5C438.931 472.5 425.5 459.069 425.5 442.5C425.5 425.931 438.931 412.5 455.5 412.5C472.069 412.5 485.5 425.931 485.5 442.5C485.5 459.069 472.069 472.5 455.5 472.5Z" stroke="black" stroke-width="3"/>
<path d="M455.5 472.5C438.931 472.5 425.5 459.069 425.5 442.5C425.5 425.931 438.931 412.5 455.5 412.5C472.069 412.5 485.5 425.931 485.5 442.5C485.5 459.069 472.069 472.5 455.5 472.5Z" stroke="url(#paint17_linear_0_1)" stroke-width="3"/>
<defs>
<linearGradient id="paint0_linear_0_1" x1="455.5" y1="414" x2="455.5" y2="471" gradientUnits="userSpaceOnUse">
<stop stop-color="#F2A04A"/>
<stop offset="1" stop-color="#F2C24D"/>
</linearGradient>
<linearGradient id="paint1_linear_0_1" x1="677" y1="277" x2="677" y2="297" gradientUnits="userSpaceOnUse">
<stop stop-color="#F2A04A"/>
<stop offset="1" stop-color="#F2C24D"/>
</linearGradient>
<linearGradient id="paint2_linear_0_1" x1="677" y1="592" x2="677" y2="612" gradientUnits="userSpaceOnUse">
<stop stop-color="#F2A04A"/>
<stop offset="1" stop-color="#F2C24D"/>
</linearGradient>
<linearGradient id="paint3_linear_0_1" x1="237" y1="592" x2="237" y2="612" gradientUnits="userSpaceOnUse">
<stop stop-color="#F2A04A"/>
<stop offset="1" stop-color="#F2C24D"/>
</linearGradient>
<linearGradient id="paint4_linear_0_1" x1="237" y1="277" x2="237" y2="297" gradientUnits="userSpaceOnUse">
<stop stop-color="#F2A04A"/>
<stop offset="1" stop-color="#F2C24D"/>
</linearGradient>
<linearGradient id="paint5_linear_0_1" x1="888" y1="494" x2="888" y2="514" gradientUnits="userSpaceOnUse">
<stop stop-color="#F2A04A"/>
<stop offset="1" stop-color="#F2C24D"/>
</linearGradient>
<linearGradient id="paint6_linear_0_1" x1="888" y1="370" x2="888" y2="390" gradientUnits="userSpaceOnUse">
<stop stop-color="#F2A04A"/>
<stop offset="1" stop-color="#F2C24D"/>
</linearGradient>
<linearGradient id="paint7_linear_0_1" x1="13" y1="494" x2="13" y2="514" gradientUnits="userSpaceOnUse">
<stop stop-color="#F2A04A"/>
<stop offset="1" stop-color="#F2C24D"/>
</linearGradient>
<linearGradient id="paint8_linear_0_1" x1="13" y1="370" x2="13" y2="390" gradientUnits="userSpaceOnUse">
<stop stop-color="#F2A04A"/>
<stop offset="1" stop-color="#F2C24D"/>
</linearGradient>
<linearGradient id="paint9_linear_0_1" x1="677" y1="274" x2="677" y2="300" gradientUnits="userSpaceOnUse">
<stop stop-color="#F2A04A"/>
<stop offset="1" stop-color="#F2C24D"/>
</linearGradient>
<linearGradient id="paint10_linear_0_1" x1="13" y1="491" x2="13" y2="517" gradientUnits="userSpaceOnUse">
<stop stop-color="#F2A04A"/>
<stop offset="1" stop-color="#F2C24D"/>
</linearGradient>
<linearGradient id="paint11_linear_0_1" x1="13" y1="367" x2="13" y2="393" gradientUnits="userSpaceOnUse">
<stop stop-color="#F2A04A"/>
<stop offset="1" stop-color="#F2C24D"/>
</linearGradient>
<linearGradient id="paint12_linear_0_1" x1="888" y1="491" x2="888" y2="517" gradientUnits="userSpaceOnUse">
<stop stop-color="#F2A04A"/>
<stop offset="1" stop-color="#F2C24D"/>
</linearGradient>
<linearGradient id="paint13_linear_0_1" x1="888" y1="367" x2="888" y2="393" gradientUnits="userSpaceOnUse">
<stop stop-color="#F2A04A"/>
<stop offset="1" stop-color="#F2C24D"/>
</linearGradient>
<linearGradient id="paint14_linear_0_1" x1="677" y1="589" x2="677" y2="615" gradientUnits="userSpaceOnUse">
<stop stop-color="#F2A04A"/>
<stop offset="1" stop-color="#F2C24D"/>
</linearGradient>
<linearGradient id="paint15_linear_0_1" x1="237" y1="589" x2="237" y2="615" gradientUnits="userSpaceOnUse">
<stop stop-color="#F2A04A"/>
<stop offset="1" stop-color="#F2C24D"/>
</linearGradient>
<linearGradient id="paint16_linear_0_1" x1="237" y1="274" x2="237" y2="300" gradientUnits="userSpaceOnUse">
<stop stop-color="#F2A04A"/>
<stop offset="1" stop-color="#F2C24D"/>
</linearGradient>
<linearGradient id="paint17_linear_0_1" x1="455.5" y1="411" x2="455.5" y2="474" gradientUnits="userSpaceOnUse">
<stop stop-color="#F2A04A"/>
<stop offset="1" stop-color="#F2C24D"/>
</linearGradient>
</defs>
</svg>
