<svg width="173" height="162" viewBox="0 0 173 162" fill="none" xmlns="http://www.w3.org/2000/svg">
<circle cx="163" cy="3" r="3" fill="white"/>
<line x1="163" y1="6" x2="163" y2="104" stroke="white" stroke-width="2"/>
<circle cx="163" cy="106" r="3" fill="white"/>
<path d="M6.82486 131C9.11086 131 10.3169 129.56 10.3169 127.76C10.3169 126.248 9.29086 125.006 8.01286 124.808C9.14686 124.574 10.0829 123.566 10.0829 122.054C10.0829 120.452 8.91287 118.994 6.62686 118.994H0.308865V131H6.82486ZM6.06887 123.8H2.86486V121.19H6.06887C6.93286 121.19 7.47286 121.748 7.47286 122.504C7.47286 123.26 6.93286 123.8 6.06887 123.8ZM6.15886 128.786H2.86486V125.996H6.15886C7.16686 125.996 7.70686 126.644 7.70686 127.4C7.70686 128.264 7.13086 128.786 6.15886 128.786ZM15.1604 131V118.994H12.6044V131H15.1604ZM23.2499 131V121.244H26.7419V118.994H17.1659V121.244H20.6759V131H23.2499ZM41.7544 131V118.994H38.1544L35.2384 126.248L32.3224 118.994H28.7404V131H31.2964V122.594L34.6804 131H35.7964L39.1804 122.594V131H41.7544ZM55.6949 131L51.0689 118.994H47.8649L43.2209 131H46.1369L46.8929 128.966H52.0409L52.7789 131H55.6949ZM51.3389 126.716H47.5949L49.4669 121.55L51.3389 126.716ZM59.7196 131V118.994H57.1636V131H59.7196ZM73.209 131V118.994H70.653V126.536L65.091 118.994H62.463V131H65.019V123.17L70.743 131H73.209ZM92.0978 131L87.4718 118.994H84.2678L79.6238 131H82.5398L83.2958 128.966H88.4438L89.1818 131H92.0978ZM87.7418 126.716H83.9978L85.8698 121.55L87.7418 126.716ZM104.312 131V118.994H101.756V126.536L96.1944 118.994H93.5664V131H96.1224V123.17L101.846 131H104.312ZM112.386 131V121.244H115.878V118.994H106.302V121.244H109.812V131H112.386ZM130.89 131V118.994H127.29L124.374 126.248L121.458 118.994H117.876V131H120.432V122.594L123.816 131H124.932L128.316 122.594V131H130.89ZM136.191 131V118.994H133.635V131H136.191ZM149.68 131V118.994H147.124V126.536L141.562 118.994H138.934V131H141.49V123.17L147.214 131H149.68ZM160.903 131V128.75H154.963V126.032H160.777V123.782H154.963V121.244H160.903V118.994H152.407V131H160.903ZM172.982 131L170.282 126.428C171.578 126.122 172.91 124.988 172.91 122.864C172.91 120.632 171.38 118.994 168.878 118.994H163.262V131H165.818V126.734H167.69L170.048 131H172.982ZM168.5 124.484H165.818V121.244H168.5C169.526 121.244 170.3 121.856 170.3 122.864C170.3 123.872 169.526 124.484 168.5 124.484Z" fill="white"/>
<path d="M6.82486 131C9.11086 131 10.3169 129.56 10.3169 127.76C10.3169 126.248 9.29086 125.006 8.01286 124.808C9.14686 124.574 10.0829 123.566 10.0829 122.054C10.0829 120.452 8.91287 118.994 6.62686 118.994H0.308865V131H6.82486ZM6.06887 123.8H2.86486V121.19H6.06887C6.93286 121.19 7.47286 121.748 7.47286 122.504C7.47286 123.26 6.93286 123.8 6.06887 123.8ZM6.15886 128.786H2.86486V125.996H6.15886C7.16686 125.996 7.70686 126.644 7.70686 127.4C7.70686 128.264 7.13086 128.786 6.15886 128.786ZM15.1604 131V118.994H12.6044V131H15.1604ZM23.2499 131V121.244H26.7419V118.994H17.1659V121.244H20.6759V131H23.2499ZM41.7544 131V118.994H38.1544L35.2384 126.248L32.3224 118.994H28.7404V131H31.2964V122.594L34.6804 131H35.7964L39.1804 122.594V131H41.7544ZM55.6949 131L51.0689 118.994H47.8649L43.2209 131H46.1369L46.8929 128.966H52.0409L52.7789 131H55.6949ZM51.3389 126.716H47.5949L49.4669 121.55L51.3389 126.716ZM59.7196 131V118.994H57.1636V131H59.7196ZM73.209 131V118.994H70.653V126.536L65.091 118.994H62.463V131H65.019V123.17L70.743 131H73.209ZM92.0978 131L87.4718 118.994H84.2678L79.6238 131H82.5398L83.2958 128.966H88.4438L89.1818 131H92.0978ZM87.7418 126.716H83.9978L85.8698 121.55L87.7418 126.716ZM104.312 131V118.994H101.756V126.536L96.1944 118.994H93.5664V131H96.1224V123.17L101.846 131H104.312ZM112.386 131V121.244H115.878V118.994H106.302V121.244H109.812V131H112.386ZM130.89 131V118.994H127.29L124.374 126.248L121.458 118.994H117.876V131H120.432V122.594L123.816 131H124.932L128.316 122.594V131H130.89ZM136.191 131V118.994H133.635V131H136.191ZM149.68 131V118.994H147.124V126.536L141.562 118.994H138.934V131H141.49V123.17L147.214 131H149.68ZM160.903 131V128.75H154.963V126.032H160.777V123.782H154.963V121.244H160.903V118.994H152.407V131H160.903ZM172.982 131L170.282 126.428C171.578 126.122 172.91 124.988 172.91 122.864C172.91 120.632 171.38 118.994 168.878 118.994H163.262V131H165.818V126.734H167.69L170.048 131H172.982ZM168.5 124.484H165.818V121.244H168.5C169.526 121.244 170.3 121.856 170.3 122.864C170.3 123.872 169.526 124.484 168.5 124.484Z" fill="url(#paint0_linear_0_1)"/>
<path d="M41.2967 158.288C45.6167 158.288 47.7047 156.08 47.7047 153.152C47.7047 147.176 38.5127 148.88 38.5127 146.336C38.5127 145.376 39.3287 144.728 40.7927 144.728C42.4247 144.728 44.1527 145.28 45.4487 146.48L47.3447 143.984C45.7607 142.52 43.6487 141.752 41.1047 141.752C37.3367 141.752 35.0327 143.96 35.0327 146.624C35.0327 152.648 44.2487 150.704 44.2487 153.536C44.2487 154.448 43.3367 155.312 41.4647 155.312C39.2567 155.312 37.5047 154.328 36.3767 153.152L34.5287 155.744C36.0167 157.256 38.2247 158.288 41.2967 158.288ZM55.2073 158.264C59.9353 158.264 62.6473 154.832 62.6473 150.008C62.6473 145.472 60.6073 141.728 55.7593 141.728C52.1113 141.728 49.6153 144.104 49.6153 147.224C49.6153 150.632 52.2073 152.432 55.0873 152.432C56.8393 152.432 58.4473 151.448 59.2153 150.368C59.2153 150.488 59.2153 150.608 59.2153 150.728C59.2153 153.032 57.8473 155.24 55.2073 155.24C53.7913 155.24 52.8793 154.808 52.0153 153.992L50.5033 156.608C51.6313 157.616 53.2633 158.264 55.2073 158.264ZM56.0473 149.504C54.5593 149.504 53.0953 148.784 53.0953 147.104C53.0953 146 54.1033 144.752 55.9273 144.752C58.1833 144.752 59.0473 146.48 59.1913 148.016C58.4233 148.952 57.2473 149.504 56.0473 149.504ZM70.4569 153.488V150.896H64.6969V153.488H70.4569ZM79.9322 158V141.992H76.9562L71.9162 147.056L73.8602 149.096L76.5242 146.384V158H79.9322ZM88.7914 158.288C92.6314 158.288 95.1034 156.344 95.1034 153.584C95.1034 151.184 92.9914 149.912 91.3594 149.744C93.1354 149.432 94.8634 148.112 94.8634 146.096C94.8634 143.432 92.5594 141.752 88.8154 141.752C86.0074 141.752 83.9914 142.832 82.6954 144.296L84.3994 146.432C85.5274 145.352 86.9194 144.776 88.4554 144.776C90.1354 144.776 91.4314 145.4 91.4314 146.672C91.4314 147.848 90.2554 148.376 88.4794 148.376C87.8794 148.376 86.7754 148.376 86.4874 148.352V151.424C86.7274 151.4 87.8074 151.376 88.4794 151.376C90.7114 151.376 91.6954 151.952 91.6954 153.224C91.6954 154.424 90.6154 155.264 88.6714 155.264C87.1114 155.264 85.3594 154.592 84.2554 153.44L82.4794 155.72C83.6554 157.16 85.8394 158.288 88.7914 158.288ZM101.725 156.824C101.725 155.264 100.693 154.376 99.5653 154.376C98.5573 154.376 97.6933 155.24 97.6933 156.296C97.6933 157.328 98.4133 158.024 99.3253 158.024C99.4933 158.024 99.7093 157.976 99.7813 157.952C99.5893 158.792 98.7013 159.8 97.9333 160.208L99.2533 161.288C100.717 160.232 101.725 158.624 101.725 156.824ZM110.53 158.288C114.394 158.288 116.938 156.152 116.938 152.744C116.938 149.504 114.514 147.56 111.802 147.56C110.338 147.56 109.042 148.136 108.274 148.904V144.992H115.858V141.992H104.866V151.184L107.242 151.808C108.202 150.896 109.282 150.512 110.602 150.512C112.426 150.512 113.482 151.472 113.482 152.888C113.482 154.184 112.402 155.264 110.506 155.264C108.826 155.264 107.338 154.64 106.258 153.512L104.362 155.888C105.73 157.376 107.746 158.288 110.53 158.288ZM126.98 158V144.992H131.636V141.992H118.868V144.992H123.548V158H126.98ZM148.7 158V141.992H145.268V148.28H137.708V141.992H134.3V158H137.708V151.28H145.268V158H148.7ZM152.959 158.48L158.647 141.512H156.439L150.751 158.48H152.959ZM166.401 158.288C170.721 158.288 172.809 156.08 172.809 153.152C172.809 147.176 163.617 148.88 163.617 146.336C163.617 145.376 164.433 144.728 165.897 144.728C167.529 144.728 169.257 145.28 170.553 146.48L172.449 143.984C170.865 142.52 168.753 141.752 166.209 141.752C162.441 141.752 160.137 143.96 160.137 146.624C160.137 152.648 169.353 150.704 169.353 153.536C169.353 154.448 168.441 155.312 166.569 155.312C164.361 155.312 162.609 154.328 161.481 153.152L159.633 155.744C161.121 157.256 163.329 158.288 166.401 158.288Z" fill="white"/>
<defs>
<linearGradient id="paint0_linear_0_1" x1="86.5" y1="114" x2="86.5" y2="166" gradientUnits="userSpaceOnUse">
<stop stop-color="#F2A04A"/>
<stop offset="1" stop-color="#F2C24D"/>
</linearGradient>
</defs>
</svg>
