<svg width="61" height="61" viewBox="0 0 61 61" fill="none" xmlns="http://www.w3.org/2000/svg">
<path d="M10.135 54.2006C9.91346 53.9789 9.60607 53.8516 9.29272 53.8516C8.97938 53.8516 8.67199 53.9789 8.45038 54.2006C8.22877 54.4224 8.10129 54.7296 8.10129 55.043C8.10129 55.3563 8.22865 55.6637 8.45038 55.8852C8.67199 56.1068 8.97938 56.2344 9.29272 56.2344C9.60607 56.2344 9.91346 56.1069 10.135 55.8852C10.3566 55.6637 10.4842 55.3563 10.4842 55.043C10.4842 54.7296 10.3567 54.4222 10.135 54.2006Z" fill="black"/>
<path d="M10.135 54.2006C9.91346 53.9789 9.60607 53.8516 9.29272 53.8516C8.97938 53.8516 8.67199 53.9789 8.45038 54.2006C8.22877 54.4224 8.10129 54.7296 8.10129 55.043C8.10129 55.3563 8.22865 55.6637 8.45038 55.8852C8.67199 56.1068 8.97938 56.2344 9.29272 56.2344C9.60607 56.2344 9.91346 56.1069 10.135 55.8852C10.3566 55.6637 10.4842 55.3563 10.4842 55.043C10.4842 54.7296 10.3567 54.4222 10.135 54.2006Z" fill="url(#paint0_linear_4_160)"/>
<path d="M55.94 21.7954C55.7184 21.5737 55.4122 21.4463 55.0976 21.4463C54.7843 21.4463 54.4769 21.5737 54.2553 21.7954C54.0338 22.017 53.9062 22.3244 53.9062 22.6377C53.9062 22.951 54.0337 23.2584 54.2553 23.4799C54.4769 23.7015 54.7843 23.8291 55.0976 23.8291C55.4122 23.8291 55.7184 23.7016 55.94 23.4799C56.1626 23.2584 56.2901 22.951 56.2901 22.6377C56.2901 22.3244 56.1626 22.017 55.94 21.7954Z" fill="black"/>
<path d="M55.94 21.7954C55.7184 21.5737 55.4122 21.4463 55.0976 21.4463C54.7843 21.4463 54.4769 21.5737 54.2553 21.7954C54.0338 22.017 53.9062 22.3244 53.9062 22.6377C53.9062 22.951 54.0337 23.2584 54.2553 23.4799C54.4769 23.7015 54.7843 23.8291 55.0976 23.8291C55.4122 23.8291 55.7184 23.7016 55.94 23.4799C56.1626 23.2584 56.2901 22.951 56.2901 22.6377C56.2901 22.3244 56.1626 22.017 55.94 21.7954Z" fill="url(#paint1_linear_4_160)"/>
<path d="M60.651 0.348962C60.4275 0.125574 60.1244 0 59.8083 0L30.4997 0.00154883C29.8418 0.00154883 29.3084 0.53506 29.3084 1.19295V4.60001L18.0149 7.62606C17.3792 7.79643 17.002 8.44968 17.1724 9.08517L23.0256 30.9286L17.9621 35.992C17.3176 35.051 16.2356 34.4322 15.0116 34.4322H3.57419C1.60332 34.4322 0 36.0356 0 38.0063V57.4257C0 59.3965 1.60332 60.9999 3.57419 60.9999H15.0117C16.6861 60.9999 18.0946 59.8423 18.4806 58.2859L19.8972 59.5212C20.9908 60.4748 22.392 61 23.843 61H59.8086C60.4665 61 61 60.4665 61 59.8086V1.1914C60.9998 0.875444 60.8744 0.57235 60.651 0.348962ZM16.2029 57.4258C16.2029 58.0826 15.6685 58.6172 15.0115 58.6172H3.57407C2.91711 58.6172 2.38263 58.0827 2.38263 57.4258V38.0064C2.38263 37.3494 2.91711 36.815 3.57407 36.815H8.10141V50.5394C8.10141 51.1973 8.63494 51.7308 9.29285 51.7308C9.95076 51.7308 10.4843 51.1973 10.4843 50.5394V36.815H15.0116C15.6686 36.815 16.2031 37.3494 16.2031 38.0064V57.4258H16.2029ZM19.7824 9.61928L29.3084 7.06681V11.4816L28.5099 11.6955C28.2045 11.7774 27.9444 11.9769 27.7864 12.2506C27.6285 12.5243 27.5856 12.8494 27.6674 13.1546C28.1253 14.8632 27.1077 16.6257 25.399 17.0835C25.0934 17.1655 24.8329 17.3654 24.675 17.6397C24.5171 17.9138 24.4746 18.2396 24.5572 18.545L29.2013 35.7415H26.8101L25.5778 30.9206C25.5386 30.7672 25.4699 30.6258 25.3781 30.5028L19.7824 9.61928ZM29.3084 16.9452V26.9984L27.1353 18.9523C28.0431 18.4836 28.7859 17.7823 29.3084 16.9452ZM46.425 58.6171H23.8428C22.9677 58.6171 22.1226 58.3004 21.463 57.7253L18.5858 55.2161V38.7381L23.7874 33.5367L24.7308 37.2277C24.8656 37.7551 25.3407 38.124 25.885 38.124L49.3091 38.1254C50.2289 38.1254 50.9772 38.8736 50.9772 39.7934C50.9772 40.7131 50.2289 41.4613 49.3091 41.4613H37.3066C36.6487 41.4613 36.1152 41.9948 36.1152 42.6527C36.1152 43.3106 36.6487 43.8441 37.3066 43.8441H53.0383C53.9581 43.8441 54.7064 44.5923 54.7064 45.5121C54.7064 46.4319 53.9581 47.1801 53.0383 47.1801H37.3066C36.6487 47.1801 36.1152 47.7136 36.1152 48.3715C36.1152 49.0294 36.6487 49.5629 37.3066 49.5629H50.489C51.4088 49.5629 52.157 50.3111 52.157 51.2308C52.157 52.1506 51.4088 52.8988 50.489 52.8988H37.3066C36.6487 52.8988 36.1152 53.4323 36.1152 54.0902C36.1152 54.7481 36.6487 55.2816 37.3066 55.2816H46.425C47.3448 55.2816 48.093 56.0298 48.093 56.9496C48.0929 57.8689 47.3447 58.6171 46.425 58.6171ZM58.6171 58.6171H58.617H50.115C50.3461 58.108 50.4758 57.5436 50.4758 56.9491C50.4758 56.3546 50.3461 55.7902 50.115 55.2811H50.489C52.7226 55.2811 54.5398 53.464 54.5398 51.2305C54.5398 50.579 54.3843 49.9634 54.1098 49.4175C55.825 48.9465 57.089 47.3744 57.089 45.5119C57.089 44.6083 56.7914 43.773 56.2894 43.0987V27.9988C56.2894 27.3409 55.7559 26.8074 55.098 26.8074C54.4401 26.8074 53.9065 27.3409 53.9065 27.9988V41.5561C53.6266 41.4947 53.3362 41.4613 53.0381 41.4613H52.999C53.23 40.9522 53.3598 40.3879 53.3598 39.7934C53.3598 37.5597 51.5426 35.7427 49.309 35.7427H47.3938C49.4275 34.8706 50.8558 32.8493 50.8558 30.4999C50.8558 27.3559 48.298 24.7981 45.1539 24.7981C42.0099 24.7981 39.452 27.3559 39.452 30.4999C39.452 32.8493 40.8805 34.8706 42.914 35.7427H36.4012V13.0891C38.5296 12.6253 40.2091 10.946 40.6728 8.81758H49.6349C50.0986 10.946 51.778 12.6253 53.9064 13.0891V16.7932C53.9064 17.4511 54.44 17.9846 55.0979 17.9846C55.7558 17.9846 56.2893 17.4511 56.2893 16.7932V12.0254C56.2893 11.3675 55.7558 10.834 55.0979 10.834C53.3289 10.834 51.89 9.39494 51.89 7.62618C51.89 6.96828 51.3565 6.43477 50.6986 6.43477H39.6092C38.9513 6.43477 38.4178 6.96828 38.4178 7.62618C38.4178 9.39505 36.9787 10.834 35.2099 10.834C34.552 10.834 34.0185 11.3675 34.0185 12.0254V35.7426H31.6914V2.38412L58.6171 2.38281V58.6171ZM45.1541 33.819C43.324 33.819 41.8352 32.3301 41.8352 30.5001C41.8352 28.6701 43.3241 27.181 45.1541 27.181C46.9842 27.181 48.4731 28.6699 48.4731 30.4999C48.4731 32.3299 46.9843 33.819 45.1541 33.819Z" fill="black"/>
<path d="M60.651 0.348962C60.4275 0.125574 60.1244 0 59.8083 0L30.4997 0.00154883C29.8418 0.00154883 29.3084 0.53506 29.3084 1.19295V4.60001L18.0149 7.62606C17.3792 7.79643 17.002 8.44968 17.1724 9.08517L23.0256 30.9286L17.9621 35.992C17.3176 35.051 16.2356 34.4322 15.0116 34.4322H3.57419C1.60332 34.4322 0 36.0356 0 38.0063V57.4257C0 59.3965 1.60332 60.9999 3.57419 60.9999H15.0117C16.6861 60.9999 18.0946 59.8423 18.4806 58.2859L19.8972 59.5212C20.9908 60.4748 22.392 61 23.843 61H59.8086C60.4665 61 61 60.4665 61 59.8086V1.1914C60.9998 0.875444 60.8744 0.57235 60.651 0.348962ZM16.2029 57.4258C16.2029 58.0826 15.6685 58.6172 15.0115 58.6172H3.57407C2.91711 58.6172 2.38263 58.0827 2.38263 57.4258V38.0064C2.38263 37.3494 2.91711 36.815 3.57407 36.815H8.10141V50.5394C8.10141 51.1973 8.63494 51.7308 9.29285 51.7308C9.95076 51.7308 10.4843 51.1973 10.4843 50.5394V36.815H15.0116C15.6686 36.815 16.2031 37.3494 16.2031 38.0064V57.4258H16.2029ZM19.7824 9.61928L29.3084 7.06681V11.4816L28.5099 11.6955C28.2045 11.7774 27.9444 11.9769 27.7864 12.2506C27.6285 12.5243 27.5856 12.8494 27.6674 13.1546C28.1253 14.8632 27.1077 16.6257 25.399 17.0835C25.0934 17.1655 24.8329 17.3654 24.675 17.6397C24.5171 17.9138 24.4746 18.2396 24.5572 18.545L29.2013 35.7415H26.8101L25.5778 30.9206C25.5386 30.7672 25.4699 30.6258 25.3781 30.5028L19.7824 9.61928ZM29.3084 16.9452V26.9984L27.1353 18.9523C28.0431 18.4836 28.7859 17.7823 29.3084 16.9452ZM46.425 58.6171H23.8428C22.9677 58.6171 22.1226 58.3004 21.463 57.7253L18.5858 55.2161V38.7381L23.7874 33.5367L24.7308 37.2277C24.8656 37.7551 25.3407 38.124 25.885 38.124L49.3091 38.1254C50.2289 38.1254 50.9772 38.8736 50.9772 39.7934C50.9772 40.7131 50.2289 41.4613 49.3091 41.4613H37.3066C36.6487 41.4613 36.1152 41.9948 36.1152 42.6527C36.1152 43.3106 36.6487 43.8441 37.3066 43.8441H53.0383C53.9581 43.8441 54.7064 44.5923 54.7064 45.5121C54.7064 46.4319 53.9581 47.1801 53.0383 47.1801H37.3066C36.6487 47.1801 36.1152 47.7136 36.1152 48.3715C36.1152 49.0294 36.6487 49.5629 37.3066 49.5629H50.489C51.4088 49.5629 52.157 50.3111 52.157 51.2308C52.157 52.1506 51.4088 52.8988 50.489 52.8988H37.3066C36.6487 52.8988 36.1152 53.4323 36.1152 54.0902C36.1152 54.7481 36.6487 55.2816 37.3066 55.2816H46.425C47.3448 55.2816 48.093 56.0298 48.093 56.9496C48.0929 57.8689 47.3447 58.6171 46.425 58.6171ZM58.6171 58.6171H58.617H50.115C50.3461 58.108 50.4758 57.5436 50.4758 56.9491C50.4758 56.3546 50.3461 55.7902 50.115 55.2811H50.489C52.7226 55.2811 54.5398 53.464 54.5398 51.2305C54.5398 50.579 54.3843 49.9634 54.1098 49.4175C55.825 48.9465 57.089 47.3744 57.089 45.5119C57.089 44.6083 56.7914 43.773 56.2894 43.0987V27.9988C56.2894 27.3409 55.7559 26.8074 55.098 26.8074C54.4401 26.8074 53.9065 27.3409 53.9065 27.9988V41.5561C53.6266 41.4947 53.3362 41.4613 53.0381 41.4613H52.999C53.23 40.9522 53.3598 40.3879 53.3598 39.7934C53.3598 37.5597 51.5426 35.7427 49.309 35.7427H47.3938C49.4275 34.8706 50.8558 32.8493 50.8558 30.4999C50.8558 27.3559 48.298 24.7981 45.1539 24.7981C42.0099 24.7981 39.452 27.3559 39.452 30.4999C39.452 32.8493 40.8805 34.8706 42.914 35.7427H36.4012V13.0891C38.5296 12.6253 40.2091 10.946 40.6728 8.81758H49.6349C50.0986 10.946 51.778 12.6253 53.9064 13.0891V16.7932C53.9064 17.4511 54.44 17.9846 55.0979 17.9846C55.7558 17.9846 56.2893 17.4511 56.2893 16.7932V12.0254C56.2893 11.3675 55.7558 10.834 55.0979 10.834C53.3289 10.834 51.89 9.39494 51.89 7.62618C51.89 6.96828 51.3565 6.43477 50.6986 6.43477H39.6092C38.9513 6.43477 38.4178 6.96828 38.4178 7.62618C38.4178 9.39505 36.9787 10.834 35.2099 10.834C34.552 10.834 34.0185 11.3675 34.0185 12.0254V35.7426H31.6914V2.38412L58.6171 2.38281V58.6171ZM45.1541 33.819C43.324 33.819 41.8352 32.3301 41.8352 30.5001C41.8352 28.6701 43.3241 27.181 45.1541 27.181C46.9842 27.181 48.4731 28.6699 48.4731 30.4999C48.4731 32.3299 46.9843 33.819 45.1541 33.819Z" fill="url(#paint2_linear_4_160)"/>
<defs>
<linearGradient id="paint0_linear_4_160" x1="9.29272" y1="53.8516" x2="9.29272" y2="56.2344" gradientUnits="userSpaceOnUse">
<stop stop-color="#F2A04A"/>
<stop offset="1" stop-color="#F2C24D"/>
</linearGradient>
<linearGradient id="paint1_linear_4_160" x1="55.0982" y1="21.4463" x2="55.0982" y2="23.8291" gradientUnits="userSpaceOnUse">
<stop stop-color="#F2A04A"/>
<stop offset="1" stop-color="#F2C24D"/>
</linearGradient>
<linearGradient id="paint2_linear_4_160" x1="30.5" y1="0" x2="30.5" y2="61" gradientUnits="userSpaceOnUse">
<stop stop-color="#F2A04A"/>
<stop offset="1" stop-color="#F2C24D"/>
</linearGradient>
</defs>
</svg>
