<svg width="70" height="59" viewBox="0 0 70 59" fill="none" xmlns="http://www.w3.org/2000/svg">
<path d="M19.2954 25.6299C18.0405 25.6299 16.8637 25.9699 15.8491 26.5603C14.8344 25.9697 13.6578 25.6299 12.4029 25.6299C8.60167 25.6299 5.50909 28.7336 5.50909 32.5483C5.50909 36.3631 8.60167 39.4668 12.4029 39.4668C13.6578 39.4668 14.8345 39.1268 15.8491 38.5363C16.8639 39.1269 18.0405 39.4668 19.2954 39.4668C23.0966 39.4668 26.189 36.3631 26.189 32.5483C26.1892 28.7336 23.0966 25.6299 19.2954 25.6299ZM13.6609 36.5269C13.2639 36.6537 12.8413 36.7226 12.4029 36.7226C10.1093 36.7226 8.24347 34.8501 8.24347 32.5483C8.24347 30.2466 10.1093 28.3741 12.4029 28.3741C12.8413 28.3741 13.2638 28.4429 13.6609 28.5697C12.8689 29.6961 12.4018 31.068 12.4018 32.5483C12.4018 34.0286 12.8689 35.4006 13.6609 36.5269ZM15.8491 34.883C15.3992 34.2162 15.136 33.4125 15.136 32.5483C15.136 31.684 15.3991 30.8803 15.8491 30.2135C16.2991 30.8803 16.5623 31.684 16.5623 32.5483C16.5623 33.4125 16.2991 34.2162 15.8491 34.883ZM19.2954 36.7226C18.8569 36.7226 18.4345 36.6537 18.0373 36.5269C18.8293 35.4006 19.2965 34.0286 19.2965 32.5483C19.2965 31.068 18.8293 29.6959 18.0373 28.5697C18.4345 28.4429 18.8569 28.3741 19.2954 28.3741C21.5889 28.3741 23.4547 30.2466 23.4547 32.5483C23.4548 34.8501 21.5889 36.7226 19.2954 36.7226Z" fill="black"/>
<path d="M19.2954 25.6299C18.0405 25.6299 16.8637 25.9699 15.8491 26.5603C14.8344 25.9697 13.6578 25.6299 12.4029 25.6299C8.60167 25.6299 5.50909 28.7336 5.50909 32.5483C5.50909 36.3631 8.60167 39.4668 12.4029 39.4668C13.6578 39.4668 14.8345 39.1268 15.8491 38.5363C16.8639 39.1269 18.0405 39.4668 19.2954 39.4668C23.0966 39.4668 26.189 36.3631 26.189 32.5483C26.1892 28.7336 23.0966 25.6299 19.2954 25.6299ZM13.6609 36.5269C13.2639 36.6537 12.8413 36.7226 12.4029 36.7226C10.1093 36.7226 8.24347 34.8501 8.24347 32.5483C8.24347 30.2466 10.1093 28.3741 12.4029 28.3741C12.8413 28.3741 13.2638 28.4429 13.6609 28.5697C12.8689 29.6961 12.4018 31.068 12.4018 32.5483C12.4018 34.0286 12.8689 35.4006 13.6609 36.5269ZM15.8491 34.883C15.3992 34.2162 15.136 33.4125 15.136 32.5483C15.136 31.684 15.3991 30.8803 15.8491 30.2135C16.2991 30.8803 16.5623 31.684 16.5623 32.5483C16.5623 33.4125 16.2991 34.2162 15.8491 34.883ZM19.2954 36.7226C18.8569 36.7226 18.4345 36.6537 18.0373 36.5269C18.8293 35.4006 19.2965 34.0286 19.2965 32.5483C19.2965 31.068 18.8293 29.6959 18.0373 28.5697C18.4345 28.4429 18.8569 28.3741 19.2954 28.3741C21.5889 28.3741 23.4547 30.2466 23.4547 32.5483C23.4548 34.8501 21.5889 36.7226 19.2954 36.7226Z" fill="url(#paint0_linear_4_185)"/>
<path d="M64.523 28.6876C64.5282 28.6389 64.5312 28.5895 64.5312 28.5394V20.444V9.87893V5.65796C64.5312 2.53824 62.0021 0 58.8935 0H37.9623C37.2072 0 36.5951 0.614286 36.5951 1.37209C36.5951 2.1299 37.2072 2.74419 37.9623 2.74419H58.8935C60.4945 2.74419 61.7969 4.05124 61.7969 5.65796V8.50698H2.73438V5.65796C2.73438 4.05124 4.03676 2.74419 5.63773 2.74419H26.5234C27.2785 2.74419 27.8906 2.1299 27.8906 1.37209C27.8906 0.614286 27.2785 0 26.5234 0H5.63773C2.52916 0 0 2.53824 0 5.65796V9.87907V20.4442V40.4489C0 43.5686 2.52916 46.1067 5.63773 46.1067H35.6348C37.1213 51.4781 41.1132 55.9608 46.4829 57.9339C46.638 57.991 46.7968 58.018 46.9529 58.018C47.5104 58.018 48.0341 57.6732 48.2368 57.1174C48.4965 56.4056 48.1321 55.6177 47.4231 55.3571C41.628 53.2276 37.7344 47.6336 37.7344 41.4372C37.7344 33.2663 44.3583 26.6186 52.5 26.6186C60.6417 26.6186 67.2656 33.2663 67.2656 41.4372C67.2656 47.5296 63.6252 52.931 57.9913 55.1977C57.2905 55.4796 56.9501 56.2783 57.231 56.9818C57.512 57.6853 58.3077 58.0268 59.0088 57.7448C62.2161 56.4544 64.9515 54.2576 66.9192 51.3922C68.9347 48.4568 70 45.0145 70 41.4372C70 36.4217 67.8938 31.8909 64.523 28.6876ZM61.7969 26.5644C59.1015 24.8614 55.9136 23.8744 52.5 23.8744C42.8504 23.8744 35 31.753 35 41.4372C35 42.0855 35.0379 42.7278 35.1081 43.3625H5.63773C4.03689 43.3625 2.73438 42.0555 2.73438 40.4489V21.8163H61.7969V26.5644ZM61.7969 19.0721H2.73438V11.2512H61.7969V19.0721Z" fill="black"/>
<path d="M64.523 28.6876C64.5282 28.6389 64.5312 28.5895 64.5312 28.5394V20.444V9.87893V5.65796C64.5312 2.53824 62.0021 0 58.8935 0H37.9623C37.2072 0 36.5951 0.614286 36.5951 1.37209C36.5951 2.1299 37.2072 2.74419 37.9623 2.74419H58.8935C60.4945 2.74419 61.7969 4.05124 61.7969 5.65796V8.50698H2.73438V5.65796C2.73438 4.05124 4.03676 2.74419 5.63773 2.74419H26.5234C27.2785 2.74419 27.8906 2.1299 27.8906 1.37209C27.8906 0.614286 27.2785 0 26.5234 0H5.63773C2.52916 0 0 2.53824 0 5.65796V9.87907V20.4442V40.4489C0 43.5686 2.52916 46.1067 5.63773 46.1067H35.6348C37.1213 51.4781 41.1132 55.9608 46.4829 57.9339C46.638 57.991 46.7968 58.018 46.9529 58.018C47.5104 58.018 48.0341 57.6732 48.2368 57.1174C48.4965 56.4056 48.1321 55.6177 47.4231 55.3571C41.628 53.2276 37.7344 47.6336 37.7344 41.4372C37.7344 33.2663 44.3583 26.6186 52.5 26.6186C60.6417 26.6186 67.2656 33.2663 67.2656 41.4372C67.2656 47.5296 63.6252 52.931 57.9913 55.1977C57.2905 55.4796 56.9501 56.2783 57.231 56.9818C57.512 57.6853 58.3077 58.0268 59.0088 57.7448C62.2161 56.4544 64.9515 54.2576 66.9192 51.3922C68.9347 48.4568 70 45.0145 70 41.4372C70 36.4217 67.8938 31.8909 64.523 28.6876ZM61.7969 26.5644C59.1015 24.8614 55.9136 23.8744 52.5 23.8744C42.8504 23.8744 35 31.753 35 41.4372C35 42.0855 35.0379 42.7278 35.1081 43.3625H5.63773C4.03689 43.3625 2.73438 42.0555 2.73438 40.4489V21.8163H61.7969V26.5644ZM61.7969 19.0721H2.73438V11.2512H61.7969V19.0721Z" fill="url(#paint1_linear_4_185)"/>
<path d="M52.5 40.1931C50.7374 40.1931 49.3037 38.9439 49.3037 37.4087C49.3037 35.8735 50.7376 34.6243 52.5 34.6243C54.2624 34.6243 55.6963 35.8735 55.6963 37.4087C55.6963 38.1665 56.3084 38.7808 57.0635 38.7808C57.8186 38.7808 58.4307 38.1665 58.4307 37.4087C58.4307 34.7988 56.4802 32.6072 53.8672 32.03V30.6778C53.8672 29.92 53.2551 29.3057 52.5 29.3057C51.7449 29.3057 51.1328 29.92 51.1328 30.6778V32.03C48.5197 32.6072 46.5693 34.7988 46.5693 37.4087C46.5693 40.4572 49.2298 42.9373 52.5 42.9373C54.2626 42.9373 55.6963 44.1864 55.6963 45.7218C55.6963 47.2572 54.2626 48.5062 52.5 48.5062C50.7374 48.5062 49.3037 47.257 49.3037 45.7218C49.3037 44.964 48.6916 44.3497 47.9365 44.3497C47.1814 44.3497 46.5693 44.964 46.5693 45.7218C46.5693 48.3317 48.5198 50.5233 51.1328 51.1005V52.1968C51.1328 52.9546 51.7449 53.5689 52.5 53.5689C53.2551 53.5689 53.8672 52.9546 53.8672 52.1968V51.1005C56.4803 50.5233 58.4307 48.3315 58.4307 45.7218C58.4307 42.6733 55.7702 40.1931 52.5 40.1931Z" fill="black"/>
<path d="M52.5 40.1931C50.7374 40.1931 49.3037 38.9439 49.3037 37.4087C49.3037 35.8735 50.7376 34.6243 52.5 34.6243C54.2624 34.6243 55.6963 35.8735 55.6963 37.4087C55.6963 38.1665 56.3084 38.7808 57.0635 38.7808C57.8186 38.7808 58.4307 38.1665 58.4307 37.4087C58.4307 34.7988 56.4802 32.6072 53.8672 32.03V30.6778C53.8672 29.92 53.2551 29.3057 52.5 29.3057C51.7449 29.3057 51.1328 29.92 51.1328 30.6778V32.03C48.5197 32.6072 46.5693 34.7988 46.5693 37.4087C46.5693 40.4572 49.2298 42.9373 52.5 42.9373C54.2626 42.9373 55.6963 44.1864 55.6963 45.7218C55.6963 47.2572 54.2626 48.5062 52.5 48.5062C50.7374 48.5062 49.3037 47.257 49.3037 45.7218C49.3037 44.964 48.6916 44.3497 47.9365 44.3497C47.1814 44.3497 46.5693 44.964 46.5693 45.7218C46.5693 48.3317 48.5198 50.5233 51.1328 51.1005V52.1968C51.1328 52.9546 51.7449 53.5689 52.5 53.5689C53.2551 53.5689 53.8672 52.9546 53.8672 52.1968V51.1005C56.4803 50.5233 58.4307 48.3315 58.4307 45.7218C58.4307 42.6733 55.7702 40.1931 52.5 40.1931Z" fill="url(#paint2_linear_4_185)"/>
<path d="M53.4666 56.6579C53.2123 56.4027 52.8596 56.2559 52.5 56.2559C52.1404 56.2559 51.7877 56.4027 51.5334 56.6579C51.2791 56.9131 51.1328 57.2671 51.1328 57.628C51.1328 57.9888 51.2791 58.3428 51.5334 58.598C51.7877 58.8532 52.1404 59 52.5 59C52.8596 59 53.2123 58.8532 53.4666 58.598C53.7209 58.3428 53.8672 57.9888 53.8672 57.628C53.8672 57.2671 53.7209 56.9131 53.4666 56.6579Z" fill="black"/>
<path d="M53.4666 56.6579C53.2123 56.4027 52.8596 56.2559 52.5 56.2559C52.1404 56.2559 51.7877 56.4027 51.5334 56.6579C51.2791 56.9131 51.1328 57.2671 51.1328 57.628C51.1328 57.9888 51.2791 58.3428 51.5334 58.598C51.7877 58.8532 52.1404 59 52.5 59C52.8596 59 53.2123 58.8532 53.4666 58.598C53.7209 58.3428 53.8672 57.9888 53.8672 57.628C53.8672 57.2671 53.7209 56.9131 53.4666 56.6579Z" fill="url(#paint3_linear_4_185)"/>
<path d="M33.3352 0.402023C33.0795 0.146814 32.7281 0 32.3672 0C32.0076 0 31.6549 0.146814 31.4006 0.402023C31.1463 0.657233 31 1.01123 31 1.37209C31 1.73295 31.1463 2.08695 31.4006 2.34216C31.6549 2.59737 32.0076 2.74419 32.3672 2.74419C32.7281 2.74419 33.0795 2.59737 33.3352 2.34216C33.5895 2.08695 33.7344 1.73295 33.7344 1.37209C33.7344 1.01123 33.5895 0.657233 33.3352 0.402023Z" fill="black"/>
<path d="M33.3352 0.402023C33.0795 0.146814 32.7281 0 32.3672 0C32.0076 0 31.6549 0.146814 31.4006 0.402023C31.1463 0.657233 31 1.01123 31 1.37209C31 1.73295 31.1463 2.08695 31.4006 2.34216C31.6549 2.59737 32.0076 2.74419 32.3672 2.74419C32.7281 2.74419 33.0795 2.59737 33.3352 2.34216C33.5895 2.08695 33.7344 1.73295 33.7344 1.37209C33.7344 1.01123 33.5895 0.657233 33.3352 0.402023Z" fill="url(#paint4_linear_4_185)"/>
<defs>
<linearGradient id="paint0_linear_4_185" x1="15.8491" y1="25.6299" x2="15.8491" y2="39.4668" gradientUnits="userSpaceOnUse">
<stop stop-color="#F2A04A"/>
<stop offset="1" stop-color="#F2C24D"/>
</linearGradient>
<linearGradient id="paint1_linear_4_185" x1="35" y1="0" x2="35" y2="58.018" gradientUnits="userSpaceOnUse">
<stop stop-color="#F2A04A"/>
<stop offset="1" stop-color="#F2C24D"/>
</linearGradient>
<linearGradient id="paint2_linear_4_185" x1="52.5" y1="29.3057" x2="52.5" y2="53.5689" gradientUnits="userSpaceOnUse">
<stop stop-color="#F2A04A"/>
<stop offset="1" stop-color="#F2C24D"/>
</linearGradient>
<linearGradient id="paint3_linear_4_185" x1="52.5" y1="56.2559" x2="52.5" y2="59" gradientUnits="userSpaceOnUse">
<stop stop-color="#F2A04A"/>
<stop offset="1" stop-color="#F2C24D"/>
</linearGradient>
<linearGradient id="paint4_linear_4_185" x1="32.3672" y1="0" x2="32.3672" y2="2.74419" gradientUnits="userSpaceOnUse">
<stop stop-color="#F2A04A"/>
<stop offset="1" stop-color="#F2C24D"/>
</linearGradient>
</defs>
</svg>
