<svg width="71" height="71" viewBox="0 0 71 71" fill="none" xmlns="http://www.w3.org/2000/svg">
<path d="M39.3444 35.5057C40.6511 34.0444 40.526 31.8004 39.0652 30.4933C38.4152 29.9118 37.5739 29.5901 36.7018 29.5895V28.4063H34.3359V29.5895H31.9701C31.3168 29.5895 30.7872 30.1193 30.7872 30.7727V40.2387C30.7872 40.8921 31.3168 41.4219 31.9701 41.4219H34.3359V42.6052H36.7018V41.4219C38.6617 41.4206 40.2495 39.8302 40.248 37.8697C40.2476 36.9973 39.9258 36.1559 39.3444 35.5057ZM36.7019 39.0554H33.1532V36.6889H36.7019C37.3552 36.6889 37.8848 37.2187 37.8848 37.8722C37.8847 38.5256 37.3552 39.0554 36.7019 39.0554ZM36.7019 34.3225H33.1532V31.956H36.7019C37.3552 31.956 37.8848 32.4858 37.8848 33.1392C37.8848 33.7927 37.3552 34.3225 36.7019 34.3225Z" fill="black"/>
<path d="M39.3444 35.5057C40.6511 34.0444 40.526 31.8004 39.0652 30.4933C38.4152 29.9118 37.5739 29.5901 36.7018 29.5895V28.4063H34.3359V29.5895H31.9701C31.3168 29.5895 30.7872 30.1193 30.7872 30.7727V40.2387C30.7872 40.8921 31.3168 41.4219 31.9701 41.4219H34.3359V42.6052H36.7018V41.4219C38.6617 41.4206 40.2495 39.8302 40.248 37.8697C40.2476 36.9973 39.9258 36.1559 39.3444 35.5057ZM36.7019 39.0554H33.1532V36.6889H36.7019C37.3552 36.6889 37.8848 37.2187 37.8848 37.8722C37.8847 38.5256 37.3552 39.0554 36.7019 39.0554ZM36.7019 34.3225H33.1532V31.956H36.7019C37.3552 31.956 37.8848 32.4858 37.8848 33.1392C37.8848 33.7927 37.3552 34.3225 36.7019 34.3225Z" fill="url(#paint0_linear_4_216)"/>
<path d="M70.9092 36.9583C70.5501 35.1445 69.1663 33.7071 67.3678 33.2799V33.2787L66.5303 24.0589C68.7032 22.6068 69.2878 19.6676 67.8361 17.4941C66.9595 16.1817 65.4868 15.3928 63.9089 15.3905C63.0905 15.3955 62.2878 15.6154 61.581 16.0282L38.9743 5.66553C39.4953 3.11076 37.847 0.617227 35.2928 0.0961562C32.7387 -0.424914 30.2459 1.22393 29.725 3.7787C29.6895 3.95279 29.6637 4.12894 29.6481 4.30599L12.3112 10.4269C11.5006 9.81191 10.512 9.4775 9.49467 9.47439C6.88145 9.48119 4.76861 11.6059 4.77541 14.2198C4.77956 15.8061 5.57788 17.2848 6.90171 18.1582L4.04378 39.1288C1.46398 39.5027 -0.324297 41.8976 0.0493579 44.4781C0.423012 47.0586 2.81739 48.8474 5.39719 48.4736C5.47703 48.4621 5.55673 48.4485 5.63599 48.4328L10.8479 60.6001C9.01633 62.4572 9.03673 65.448 10.8933 67.2799C12.7499 69.112 15.7399 69.0916 17.5713 67.2345C17.8238 66.9786 18.046 66.6948 18.2341 66.3885L30.9067 67.2937C31.4656 69.8384 33.9811 71.4482 36.5251 70.8891C38.5856 70.4364 40.0949 68.6699 40.221 66.5636L57.1568 62.1063C58.1209 64.536 60.8715 65.7237 63.3003 64.7595C65.7292 63.7953 66.9167 61.0438 65.9527 58.6143C65.4781 57.418 64.5368 56.4667 63.3459 55.9795L67.1939 42.5095C69.7523 42.0026 71.4157 39.5174 70.9092 36.9583ZM63.9089 17.7571C65.2156 17.7571 66.2748 18.8165 66.2748 20.1236C66.2748 21.4306 65.2156 22.4901 63.9089 22.4901C62.6023 22.4901 61.5431 21.4306 61.5431 20.1236C61.5431 18.8165 62.6024 17.7571 63.9089 17.7571ZM27.4113 26.9071L21.8646 22.5906L26.3467 16.7442L34.0357 17.4542L34.5171 23.7194C31.8555 23.9447 29.3497 25.0688 27.4113 26.9071ZM35.519 26.0398C40.7455 26.0398 44.9824 30.2779 44.9824 35.5057C44.9824 40.7336 40.7455 44.9717 35.519 44.9717C30.295 44.9657 26.0616 40.7312 26.0557 35.5057C26.0557 30.2777 30.2925 26.0398 35.519 26.0398ZM25.8592 28.6997C24.4599 30.6704 23.7024 33.0248 23.6897 35.4418L8.23368 40.5937C8.20292 40.5605 8.17926 40.5227 8.14851 40.4907L20.4272 24.4708L25.8592 28.6997ZM9.36115 42.714L23.9264 37.8627C24.3264 39.8247 25.2197 41.6524 26.5218 43.1731L19.4444 52.6119L9.28781 45.0971C9.41882 44.673 9.48861 44.2323 9.49482 43.7884C9.49142 43.4263 9.44661 43.0658 9.36115 42.714ZM28.2405 44.8202C32.6333 48.2793 38.8525 48.1704 43.1217 44.5599L45.1941 46.504L24.9071 56.6503L21.3441 54.0164L28.2405 44.8202ZM44.7718 42.8572C46.1964 41.0736 47.0714 38.9141 47.2903 36.6416L52.7163 37.0747L47.6097 45.2923L47.4535 45.3716L44.7718 42.8572ZM55.3684 37.2889L61.5504 37.7835C61.5504 37.8142 61.5409 37.8426 61.5409 37.8734C61.5433 38.0189 61.574 38.1586 61.587 38.3017L51.6505 43.2713L55.3684 37.2889ZM56.7808 35.0301L63.1485 24.7844C63.3997 24.8286 63.654 24.8527 63.9091 24.8565C64.0167 24.8565 64.1173 24.8317 64.2237 24.8246L65.0021 33.3368C63.8399 33.6659 62.8479 34.4281 62.2305 35.4667L56.7808 35.0301ZM60.9658 23.7999L54.1227 34.8135L47.2818 34.2657C47.1316 32.856 46.7268 31.4852 46.0871 30.2202L60.0645 22.8616C60.3201 23.2145 60.6235 23.5303 60.9658 23.7999ZM59.2281 20.6276H59.2293L44.8166 28.2158C42.8749 25.7321 40.0215 24.1278 36.8911 23.7597L36.4179 17.6814L59.2021 19.8017C59.1938 19.9094 59.169 20.0135 59.169 20.1236C59.1798 20.2925 59.1994 20.4608 59.2281 20.6276ZM37.9202 7.78827L58.878 17.3926L36.2428 15.2865L35.7697 9.22591C36.6069 8.95731 37.352 8.45917 37.9202 7.78827ZM34.3361 2.37493C35.6428 2.37493 36.702 3.43438 36.702 4.74142C36.702 6.04846 35.6428 7.1079 34.3361 7.1079C33.0294 7.1079 31.9703 6.04846 31.9703 4.74142C31.9703 3.43438 33.0294 2.37493 34.3361 2.37493ZM32.2909 8.99281C32.6475 9.1703 33.0256 9.30075 33.4158 9.38091L33.4099 9.38565L33.8464 15.0652L28.0501 14.5257L32.2909 8.99281ZM30.0303 6.68075C30.1546 6.95704 30.3055 7.22061 30.481 7.46761L25.2643 14.2701L14.1165 13.2336C14.0557 12.9463 13.9682 12.6654 13.8551 12.3946L30.0303 6.68075ZM13.9899 15.5941L23.5645 16.4851L19.9991 21.1435L13.7297 16.2698C13.8335 16.0514 13.9204 15.8256 13.9899 15.5941ZM9.49482 11.8409C10.8015 11.8409 11.8607 12.9003 11.8607 14.2074C11.8607 15.5144 10.8015 16.5738 9.49482 16.5738C8.18814 16.5738 7.12898 15.5144 7.12898 14.2074C7.12898 12.9003 8.18814 11.8409 9.49482 11.8409ZM9.18711 18.906C9.29121 18.9155 9.38939 18.9403 9.49467 18.9403C10.4656 18.9396 11.4123 18.6379 12.2047 18.0766L18.5594 23.0202L6.47704 38.7845L9.18711 18.906ZM4.76314 46.1549C3.45646 46.1549 2.3973 45.0955 2.3973 43.7884C2.3973 42.4814 3.45646 41.4219 4.76314 41.4219C6.06982 41.4219 7.12898 42.4814 7.12898 43.7884C7.12898 45.0955 6.06968 46.1549 4.76314 46.1549ZM7.77116 47.4115C7.87644 47.3239 7.99 47.247 8.087 47.15L18.0235 54.498L14.4997 59.1978C14.4063 59.1978 14.3188 59.1706 14.2241 59.1706C13.7742 59.1769 13.3275 59.2487 12.8981 59.3836L7.77116 47.4115ZM14.2265 66.27C12.9198 66.27 11.8607 65.2106 11.8607 63.9035C11.8607 62.5965 12.9198 61.5371 14.2265 61.5371C15.5332 61.5371 16.5923 62.5965 16.5923 63.9035C16.5923 65.2106 15.533 66.27 14.2265 66.27ZM17.3859 60.4118C17.224 60.2577 17.0513 60.1152 16.869 59.9858L19.928 55.9048L22.5304 57.8323L17.3859 60.4118ZM31.0086 64.9271L18.9428 64.0656C18.9428 64.0089 18.9594 63.9568 18.9594 63.9C18.9527 63.3893 18.8619 62.8831 18.6908 62.402L24.6705 59.4072L31.2452 64.268C31.1499 64.4814 31.071 64.7018 31.0086 64.9271ZM35.519 68.6365C34.2124 68.6365 33.1532 67.5771 33.1532 66.27C33.1532 64.963 34.2124 63.9035 35.519 63.9035C36.8257 63.9035 37.8849 64.963 37.8849 66.27C37.8849 67.5771 36.8256 68.6365 35.519 68.6365ZM37.2934 61.892C35.7867 61.2699 34.0643 61.4807 32.7522 62.4482V62.4505L27.0434 58.224L45.219 49.1319L37.2934 61.892ZM56.8741 59.7373L56.8718 59.7421L39.7774 64.2372C39.6187 63.9109 39.4231 63.604 39.1942 63.3226L48.0117 49.1355L57.4656 58.0015C57.1555 58.5352 56.9544 59.1252 56.8741 59.7373ZM63.9089 60.3538C63.9089 61.6609 62.8498 62.7203 61.5431 62.7203C60.2364 62.7203 59.1773 61.6609 59.1773 60.3538C59.1773 59.0468 60.2364 57.9873 61.5431 57.9873C62.8498 57.9873 63.9089 59.0468 63.9089 60.3538ZM60.9729 55.6836C60.3178 55.7596 59.6861 55.9733 59.1193 56.3107L49.2928 47.1015L62.3806 40.5558C62.9662 41.3969 63.8088 42.0251 64.7819 42.346L60.9729 55.6836ZM66.2748 40.2387C64.9681 40.2387 63.9089 39.1792 63.9089 37.8722C63.9089 36.5652 64.9681 35.5057 66.2748 35.5057C67.5815 35.5057 68.6406 36.5652 68.6406 37.8722C68.6406 39.1791 67.5815 40.2387 66.2748 40.2387Z" fill="black"/>
<path d="M70.9092 36.9583C70.5501 35.1445 69.1663 33.7071 67.3678 33.2799V33.2787L66.5303 24.0589C68.7032 22.6068 69.2878 19.6676 67.8361 17.4941C66.9595 16.1817 65.4868 15.3928 63.9089 15.3905C63.0905 15.3955 62.2878 15.6154 61.581 16.0282L38.9743 5.66553C39.4953 3.11076 37.847 0.617227 35.2928 0.0961562C32.7387 -0.424914 30.2459 1.22393 29.725 3.7787C29.6895 3.95279 29.6637 4.12894 29.6481 4.30599L12.3112 10.4269C11.5006 9.81191 10.512 9.4775 9.49467 9.47439C6.88145 9.48119 4.76861 11.6059 4.77541 14.2198C4.77956 15.8061 5.57788 17.2848 6.90171 18.1582L4.04378 39.1288C1.46398 39.5027 -0.324297 41.8976 0.0493579 44.4781C0.423012 47.0586 2.81739 48.8474 5.39719 48.4736C5.47703 48.4621 5.55673 48.4485 5.63599 48.4328L10.8479 60.6001C9.01633 62.4572 9.03673 65.448 10.8933 67.2799C12.7499 69.112 15.7399 69.0916 17.5713 67.2345C17.8238 66.9786 18.046 66.6948 18.2341 66.3885L30.9067 67.2937C31.4656 69.8384 33.9811 71.4482 36.5251 70.8891C38.5856 70.4364 40.0949 68.6699 40.221 66.5636L57.1568 62.1063C58.1209 64.536 60.8715 65.7237 63.3003 64.7595C65.7292 63.7953 66.9167 61.0438 65.9527 58.6143C65.4781 57.418 64.5368 56.4667 63.3459 55.9795L67.1939 42.5095C69.7523 42.0026 71.4157 39.5174 70.9092 36.9583ZM63.9089 17.7571C65.2156 17.7571 66.2748 18.8165 66.2748 20.1236C66.2748 21.4306 65.2156 22.4901 63.9089 22.4901C62.6023 22.4901 61.5431 21.4306 61.5431 20.1236C61.5431 18.8165 62.6024 17.7571 63.9089 17.7571ZM27.4113 26.9071L21.8646 22.5906L26.3467 16.7442L34.0357 17.4542L34.5171 23.7194C31.8555 23.9447 29.3497 25.0688 27.4113 26.9071ZM35.519 26.0398C40.7455 26.0398 44.9824 30.2779 44.9824 35.5057C44.9824 40.7336 40.7455 44.9717 35.519 44.9717C30.295 44.9657 26.0616 40.7312 26.0557 35.5057C26.0557 30.2777 30.2925 26.0398 35.519 26.0398ZM25.8592 28.6997C24.4599 30.6704 23.7024 33.0248 23.6897 35.4418L8.23368 40.5937C8.20292 40.5605 8.17926 40.5227 8.14851 40.4907L20.4272 24.4708L25.8592 28.6997ZM9.36115 42.714L23.9264 37.8627C24.3264 39.8247 25.2197 41.6524 26.5218 43.1731L19.4444 52.6119L9.28781 45.0971C9.41882 44.673 9.48861 44.2323 9.49482 43.7884C9.49142 43.4263 9.44661 43.0658 9.36115 42.714ZM28.2405 44.8202C32.6333 48.2793 38.8525 48.1704 43.1217 44.5599L45.1941 46.504L24.9071 56.6503L21.3441 54.0164L28.2405 44.8202ZM44.7718 42.8572C46.1964 41.0736 47.0714 38.9141 47.2903 36.6416L52.7163 37.0747L47.6097 45.2923L47.4535 45.3716L44.7718 42.8572ZM55.3684 37.2889L61.5504 37.7835C61.5504 37.8142 61.5409 37.8426 61.5409 37.8734C61.5433 38.0189 61.574 38.1586 61.587 38.3017L51.6505 43.2713L55.3684 37.2889ZM56.7808 35.0301L63.1485 24.7844C63.3997 24.8286 63.654 24.8527 63.9091 24.8565C64.0167 24.8565 64.1173 24.8317 64.2237 24.8246L65.0021 33.3368C63.8399 33.6659 62.8479 34.4281 62.2305 35.4667L56.7808 35.0301ZM60.9658 23.7999L54.1227 34.8135L47.2818 34.2657C47.1316 32.856 46.7268 31.4852 46.0871 30.2202L60.0645 22.8616C60.3201 23.2145 60.6235 23.5303 60.9658 23.7999ZM59.2281 20.6276H59.2293L44.8166 28.2158C42.8749 25.7321 40.0215 24.1278 36.8911 23.7597L36.4179 17.6814L59.2021 19.8017C59.1938 19.9094 59.169 20.0135 59.169 20.1236C59.1798 20.2925 59.1994 20.4608 59.2281 20.6276ZM37.9202 7.78827L58.878 17.3926L36.2428 15.2865L35.7697 9.22591C36.6069 8.95731 37.352 8.45917 37.9202 7.78827ZM34.3361 2.37493C35.6428 2.37493 36.702 3.43438 36.702 4.74142C36.702 6.04846 35.6428 7.1079 34.3361 7.1079C33.0294 7.1079 31.9703 6.04846 31.9703 4.74142C31.9703 3.43438 33.0294 2.37493 34.3361 2.37493ZM32.2909 8.99281C32.6475 9.1703 33.0256 9.30075 33.4158 9.38091L33.4099 9.38565L33.8464 15.0652L28.0501 14.5257L32.2909 8.99281ZM30.0303 6.68075C30.1546 6.95704 30.3055 7.22061 30.481 7.46761L25.2643 14.2701L14.1165 13.2336C14.0557 12.9463 13.9682 12.6654 13.8551 12.3946L30.0303 6.68075ZM13.9899 15.5941L23.5645 16.4851L19.9991 21.1435L13.7297 16.2698C13.8335 16.0514 13.9204 15.8256 13.9899 15.5941ZM9.49482 11.8409C10.8015 11.8409 11.8607 12.9003 11.8607 14.2074C11.8607 15.5144 10.8015 16.5738 9.49482 16.5738C8.18814 16.5738 7.12898 15.5144 7.12898 14.2074C7.12898 12.9003 8.18814 11.8409 9.49482 11.8409ZM9.18711 18.906C9.29121 18.9155 9.38939 18.9403 9.49467 18.9403C10.4656 18.9396 11.4123 18.6379 12.2047 18.0766L18.5594 23.0202L6.47704 38.7845L9.18711 18.906ZM4.76314 46.1549C3.45646 46.1549 2.3973 45.0955 2.3973 43.7884C2.3973 42.4814 3.45646 41.4219 4.76314 41.4219C6.06982 41.4219 7.12898 42.4814 7.12898 43.7884C7.12898 45.0955 6.06968 46.1549 4.76314 46.1549ZM7.77116 47.4115C7.87644 47.3239 7.99 47.247 8.087 47.15L18.0235 54.498L14.4997 59.1978C14.4063 59.1978 14.3188 59.1706 14.2241 59.1706C13.7742 59.1769 13.3275 59.2487 12.8981 59.3836L7.77116 47.4115ZM14.2265 66.27C12.9198 66.27 11.8607 65.2106 11.8607 63.9035C11.8607 62.5965 12.9198 61.5371 14.2265 61.5371C15.5332 61.5371 16.5923 62.5965 16.5923 63.9035C16.5923 65.2106 15.533 66.27 14.2265 66.27ZM17.3859 60.4118C17.224 60.2577 17.0513 60.1152 16.869 59.9858L19.928 55.9048L22.5304 57.8323L17.3859 60.4118ZM31.0086 64.9271L18.9428 64.0656C18.9428 64.0089 18.9594 63.9568 18.9594 63.9C18.9527 63.3893 18.8619 62.8831 18.6908 62.402L24.6705 59.4072L31.2452 64.268C31.1499 64.4814 31.071 64.7018 31.0086 64.9271ZM35.519 68.6365C34.2124 68.6365 33.1532 67.5771 33.1532 66.27C33.1532 64.963 34.2124 63.9035 35.519 63.9035C36.8257 63.9035 37.8849 64.963 37.8849 66.27C37.8849 67.5771 36.8256 68.6365 35.519 68.6365ZM37.2934 61.892C35.7867 61.2699 34.0643 61.4807 32.7522 62.4482V62.4505L27.0434 58.224L45.219 49.1319L37.2934 61.892ZM56.8741 59.7373L56.8718 59.7421L39.7774 64.2372C39.6187 63.9109 39.4231 63.604 39.1942 63.3226L48.0117 49.1355L57.4656 58.0015C57.1555 58.5352 56.9544 59.1252 56.8741 59.7373ZM63.9089 60.3538C63.9089 61.6609 62.8498 62.7203 61.5431 62.7203C60.2364 62.7203 59.1773 61.6609 59.1773 60.3538C59.1773 59.0468 60.2364 57.9873 61.5431 57.9873C62.8498 57.9873 63.9089 59.0468 63.9089 60.3538ZM60.9729 55.6836C60.3178 55.7596 59.6861 55.9733 59.1193 56.3107L49.2928 47.1015L62.3806 40.5558C62.9662 41.3969 63.8088 42.0251 64.7819 42.346L60.9729 55.6836ZM66.2748 40.2387C64.9681 40.2387 63.9089 39.1792 63.9089 37.8722C63.9089 36.5652 64.9681 35.5057 66.2748 35.5057C67.5815 35.5057 68.6406 36.5652 68.6406 37.8722C68.6406 39.1791 67.5815 40.2387 66.2748 40.2387Z" fill="url(#paint1_linear_4_216)"/>
<defs>
<linearGradient id="paint0_linear_4_216" x1="35.5177" y1="28.4062" x2="35.5177" y2="42.6052" gradientUnits="userSpaceOnUse">
<stop stop-color="#F2A04A"/>
<stop offset="1" stop-color="#F2C24D"/>
</linearGradient>
<linearGradient id="paint1_linear_4_216" x1="35.5" y1="0" x2="35.5" y2="71" gradientUnits="userSpaceOnUse">
<stop stop-color="#F2A04A"/>
<stop offset="1" stop-color="#F2C24D"/>
</linearGradient>
</defs>
</svg>
