<svg width="223" height="188" viewBox="0 0 223 188" fill="none" xmlns="http://www.w3.org/2000/svg">
<circle cx="3" cy="52" r="3" fill="white"/>
<line x1="3" y1="3" x2="3" y2="49" stroke="white" stroke-width="2"/>
<line x1="2.00345" y1="2.50001" x2="147.003" y2="3.50001" stroke="#FFFEFE"/>
<line x1="2.00342" y1="1.50001" x2="147.003" y2="2.49316" stroke="#FFFEFE"/>
<circle cx="150" cy="3" r="3" fill="white"/>
<path d="M13.988 84V71.994H3.188V84H5.744V74.244H11.414V84H13.988ZM18.91 84V79.734H21.97C24.562 79.734 26.002 77.952 26.002 75.864C26.002 73.758 24.58 71.994 21.97 71.994H16.354V84H18.91ZM21.628 77.484H18.91V74.244H21.628C22.636 74.244 23.392 74.856 23.392 75.864C23.392 76.854 22.636 77.484 21.628 77.484ZM33.2744 84.216C36.9104 84.216 39.5564 81.624 39.5564 78.006C39.5564 74.388 36.9104 71.796 33.2744 71.796C29.6564 71.796 27.0104 74.388 27.0104 78.006C27.0104 81.624 29.6564 84.216 33.2744 84.216ZM33.2744 81.948C31.0604 81.948 29.6384 80.238 29.6384 78.006C29.6384 75.756 31.0604 74.064 33.2744 74.064C35.4884 74.064 36.9284 75.756 36.9284 78.006C36.9284 80.238 35.4884 81.948 33.2744 81.948ZM40.0149 86.214H42.5709V84H50.0589V86.214H52.6149V81.75H51.5349V71.994H43.0029L42.3009 78.132C41.9229 81.3 41.2389 81.786 40.0149 81.948V86.214ZM44.8389 78.312L45.3069 74.244H48.9609V81.75H43.3809C44.1369 81.048 44.6589 79.932 44.8389 78.312ZM53.3918 84.216C55.8398 84.216 57.6398 83.298 58.2158 78.312L58.6838 74.244H62.3378V84H64.9118V71.994H56.3798L55.6778 78.132C55.2998 81.3 54.5978 81.948 53.3918 81.948V84.216ZM75.7738 84V81.75H69.8338V79.032H75.6478V76.782H69.8338V74.244H75.7738V71.994H67.2778V84H75.7738ZM88.572 84V71.994H85.998V76.71H80.328V71.994H77.772V84H80.328V78.96H85.998V84H88.572ZM101.738 84V71.994H99.164V76.71H93.494V71.994H90.938V84H93.494V78.96H99.164V84H101.738ZM115.3 84L110.674 71.994H107.47L102.826 84H105.742L106.498 81.966H111.646L112.384 84H115.3ZM110.944 79.716H107.2L109.072 74.55L110.944 79.716ZM118.821 84L121.197 79.734H123.051V84H125.607V71.994H119.991C117.489 71.994 115.959 73.632 115.959 75.864C115.959 77.988 117.291 79.122 118.587 79.428L115.887 84H118.821ZM120.369 77.484C119.343 77.484 118.569 76.872 118.569 75.864C118.569 74.856 119.343 74.244 120.369 74.244H123.051V77.484H120.369ZM135.137 84V74.244H141.077V71.994H132.581V84H135.137ZM152.9 84L148.274 71.994H145.07L140.426 84H143.342L144.098 81.966H149.246L149.984 84H152.9ZM148.544 79.716H144.8L146.672 74.55L148.544 79.716ZM156.564 84V79.734H159.624C162.216 79.734 163.656 77.952 163.656 75.864C163.656 73.758 162.234 71.994 159.624 71.994H154.008V84H156.564ZM159.282 77.484H156.564V74.244H159.282C160.29 74.244 161.046 74.856 161.046 75.864C161.046 76.854 160.29 77.484 159.282 77.484ZM175.101 84L170.475 71.994H167.271L162.627 84H165.543L166.299 81.966H171.447L172.185 84H175.101ZM170.745 79.716H167.001L168.873 74.55L170.745 79.716ZM187.009 84V71.994H184.435V76.71H178.765V71.994H176.209V84H178.765V78.96H184.435V84H187.009ZM194.722 84V74.244H198.213V71.994H188.638V74.244H192.147V84H194.722ZM202.318 84L208.042 75.954V84H210.598V71.994H207.97L202.408 79.752V71.994H199.852V84H202.318ZM215.377 84L217.753 79.734H219.607V84H222.163V71.994H216.547C214.045 71.994 212.515 73.632 212.515 75.864C212.515 77.988 213.847 79.122 215.143 79.428L212.443 84H215.377ZM216.925 77.484C215.899 77.484 215.125 76.872 215.125 75.864C215.125 74.856 215.899 74.244 216.925 74.244H219.607V77.484H216.925Z" fill="white"/>
<path d="M10.28 112V95.992H7.304L2.264 101.056L4.208 103.096L6.872 100.384V112H10.28ZM19.3072 112.288C23.8672 112.288 25.9312 108.136 25.9312 104.008C25.9312 99.88 23.8672 95.752 19.3072 95.752C14.7232 95.752 12.6832 99.88 12.6832 104.008C12.6832 108.136 14.7232 112.288 19.3072 112.288ZM19.3072 109.264C17.0032 109.264 16.1392 106.96 16.1392 104.008C16.1392 101.056 17.0032 98.776 19.3072 98.776C21.5872 98.776 22.4512 101.056 22.4512 104.008C22.4512 106.96 21.5872 109.264 19.3072 109.264ZM51.8266 112V95.992H47.0266L43.1386 105.664L39.2506 95.992H34.4746V112H37.8826V100.792L42.3946 112H43.8826L48.3946 100.792V112H51.8266ZM66.3339 112V109H58.4139V105.376H66.1659V102.376H58.4139V98.992H66.3339V95.992H55.0059V112H66.3339ZM76.7501 112.288C80.2781 112.288 82.2941 110.344 83.4461 108.352L80.5181 106.936C79.8461 108.256 78.4061 109.264 76.7501 109.264C73.8461 109.264 71.7341 107.032 71.7341 104.008C71.7341 100.984 73.8461 98.752 76.7501 98.752C78.4061 98.752 79.8461 99.784 80.5181 101.08L83.4461 99.64C82.3181 97.648 80.2781 95.728 76.7501 95.728C71.9501 95.728 68.2301 99.088 68.2301 104.008C68.2301 108.928 71.9501 112.288 76.7501 112.288ZM88.6906 112L91.8586 106.312H94.3306V112H97.7386V95.992H90.2506C86.9146 95.992 84.8746 98.176 84.8746 101.152C84.8746 103.984 86.6506 105.496 88.3786 105.904L84.7786 112H88.6906ZM90.7546 103.312C89.3866 103.312 88.3546 102.496 88.3546 101.152C88.3546 99.808 89.3866 98.992 90.7546 98.992H94.3306V103.312H90.7546ZM113.328 114.952H116.737V109H115.297V95.992H111.865V109H104.305V95.992H100.896V112H113.328V114.952ZM130.06 112V109H122.14V105.376H129.892V102.376H122.14V98.992H130.06V95.992H118.732V112H130.06ZM141.413 112C144.461 112 146.069 110.08 146.069 107.68C146.069 105.664 144.701 104.008 142.997 103.744C144.509 103.432 145.757 102.088 145.757 100.072C145.757 97.936 144.197 95.992 141.149 95.992H132.725V112H141.413ZM140.405 102.4H136.133V98.92H140.405C141.557 98.92 142.277 99.664 142.277 100.672C142.277 101.68 141.557 102.4 140.405 102.4ZM140.525 109.048H136.133V105.328H140.525C141.869 105.328 142.589 106.192 142.589 107.2C142.589 108.352 141.821 109.048 140.525 109.048Z" fill="white"/>
<path d="M10.28 112V95.992H7.304L2.264 101.056L4.208 103.096L6.872 100.384V112H10.28ZM19.3072 112.288C23.8672 112.288 25.9312 108.136 25.9312 104.008C25.9312 99.88 23.8672 95.752 19.3072 95.752C14.7232 95.752 12.6832 99.88 12.6832 104.008C12.6832 108.136 14.7232 112.288 19.3072 112.288ZM19.3072 109.264C17.0032 109.264 16.1392 106.96 16.1392 104.008C16.1392 101.056 17.0032 98.776 19.3072 98.776C21.5872 98.776 22.4512 101.056 22.4512 104.008C22.4512 106.96 21.5872 109.264 19.3072 109.264ZM51.8266 112V95.992H47.0266L43.1386 105.664L39.2506 95.992H34.4746V112H37.8826V100.792L42.3946 112H43.8826L48.3946 100.792V112H51.8266ZM66.3339 112V109H58.4139V105.376H66.1659V102.376H58.4139V98.992H66.3339V95.992H55.0059V112H66.3339ZM76.7501 112.288C80.2781 112.288 82.2941 110.344 83.4461 108.352L80.5181 106.936C79.8461 108.256 78.4061 109.264 76.7501 109.264C73.8461 109.264 71.7341 107.032 71.7341 104.008C71.7341 100.984 73.8461 98.752 76.7501 98.752C78.4061 98.752 79.8461 99.784 80.5181 101.08L83.4461 99.64C82.3181 97.648 80.2781 95.728 76.7501 95.728C71.9501 95.728 68.2301 99.088 68.2301 104.008C68.2301 108.928 71.9501 112.288 76.7501 112.288ZM88.6906 112L91.8586 106.312H94.3306V112H97.7386V95.992H90.2506C86.9146 95.992 84.8746 98.176 84.8746 101.152C84.8746 103.984 86.6506 105.496 88.3786 105.904L84.7786 112H88.6906ZM90.7546 103.312C89.3866 103.312 88.3546 102.496 88.3546 101.152C88.3546 99.808 89.3866 98.992 90.7546 98.992H94.3306V103.312H90.7546ZM113.328 114.952H116.737V109H115.297V95.992H111.865V109H104.305V95.992H100.896V112H113.328V114.952ZM130.06 112V109H122.14V105.376H129.892V102.376H122.14V98.992H130.06V95.992H118.732V112H130.06ZM141.413 112C144.461 112 146.069 110.08 146.069 107.68C146.069 105.664 144.701 104.008 142.997 103.744C144.509 103.432 145.757 102.088 145.757 100.072C145.757 97.936 144.197 95.992 141.149 95.992H132.725V112H141.413ZM140.405 102.4H136.133V98.92H140.405C141.557 98.92 142.277 99.664 142.277 100.672C142.277 101.68 141.557 102.4 140.405 102.4ZM140.525 109.048H136.133V105.328H140.525C141.869 105.328 142.589 106.192 142.589 107.2C142.589 108.352 141.821 109.048 140.525 109.048Z" fill="url(#paint0_linear_0_1)"/>
<path d="M112.5 150C105.056 150 99 156.096 99 163.589V174.411C99 181.904 105.056 188 112.5 188C119.944 188 126 181.923 126 174.453V163.589C126 156.096 119.944 150 112.5 150ZM123.461 174.453C123.461 180.535 118.544 185.483 112.5 185.483C106.456 185.483 101.539 180.516 101.539 174.411V163.589C101.539 157.484 106.456 152.517 112.5 152.517C118.544 152.517 123.461 157.484 123.461 163.589V174.453Z" fill="white"/>
<path d="M112.27 160C111.568 160 111 160.563 111 161.258V165.662C111 166.357 111.568 166.921 112.27 166.921C112.971 166.921 113.539 166.357 113.539 165.662V161.258C113.539 160.563 112.971 160 112.27 160Z" fill="white"/>
<defs>
<linearGradient id="paint0_linear_0_1" x1="113" y1="66" x2="113" y2="120" gradientUnits="userSpaceOnUse">
<stop stop-color="#F2A04A"/>
<stop offset="1" stop-color="#F2C24D"/>
</linearGradient>
</defs>
</svg>
