<svg width="112" height="13" viewBox="0 0 112 13" fill="none" xmlns="http://www.w3.org/2000/svg">
<path d="M7.876 10V0.662H0.092V10H1.254V1.698H6.714V10H7.876ZM13.3488 10.168C15.1268 10.168 16.3588 8.796 16.3588 6.612C16.3588 4.414 15.1268 3.07 13.3488 3.07C12.3968 3.07 11.5568 3.56 11.0668 4.246V3.238H10.0168V12.576H11.0668V8.978C11.6128 9.734 12.4248 10.168 13.3488 10.168ZM13.0828 9.23C12.2568 9.23 11.4308 8.726 11.0668 8.138V5.086C11.4308 4.498 12.2568 4.008 13.0828 4.008C14.4408 4.008 15.2528 5.114 15.2528 6.612C15.2528 8.11 14.4408 9.23 13.0828 9.23ZM19.0365 10L22.6065 4.736V10H23.6565V3.238H22.6205L19.0785 8.404V3.238H18.0285V10H19.0365ZM28.7071 9.23C27.2651 9.23 26.4531 7.998 26.4531 6.598C26.4531 5.24 27.2651 4.008 28.7071 4.008C30.1491 4.008 30.9471 5.24 30.9471 6.598C30.9471 7.998 30.1491 9.23 28.7071 9.23ZM28.7071 10.168C30.7931 10.168 32.0391 8.544 32.0391 6.598C32.0391 4.68 30.7931 3.07 28.8751 3.07C27.6711 3.07 26.8171 3.742 26.3271 4.512C26.5651 3.364 27.1671 2.496 29.1691 2.216C30.3171 2.062 31.8291 1.768 31.8291 0.662H30.8071C30.8071 0.942 30.3871 1.124 28.9031 1.348C26.5511 1.656 25.3611 3.014 25.3611 6.304C25.3611 8.544 26.6351 10.168 28.7071 10.168ZM33.8332 3.238V10H37.4172C38.8032 10 39.5452 9.048 39.5452 7.928C39.5452 6.822 38.8172 5.856 37.4172 5.856H34.8832V3.238H33.8332ZM37.3052 6.78C38.0752 6.78 38.4672 7.27 38.4672 7.928C38.4672 8.6 38.0612 9.076 37.3052 9.076H34.8832V6.78H37.3052ZM41.7012 10V3.238H40.6512V10H41.7012ZM43.002 10.168C44.304 10.168 45.032 9.216 45.34 6.696L45.648 4.162H48.378V10H49.428V3.238H44.724L44.29 6.57C44.024 8.572 43.632 9.3 43.002 9.3V10.168ZM51.5246 3.238V10H55.1086C56.4946 10 57.2366 9.048 57.2366 7.928C57.2366 6.822 56.5086 5.856 55.1086 5.856H52.5746V3.238H51.5246ZM54.9966 6.78C55.7666 6.78 56.1586 7.27 56.1586 7.928C56.1586 8.6 55.7526 9.076 54.9966 9.076H52.5746V6.78H54.9966ZM66.2424 10C67.4884 10 68.2164 9.258 68.2164 8.166C68.2164 7.396 67.6704 6.682 66.9844 6.514C67.5584 6.332 68.0764 5.786 68.0764 4.974C68.0764 3.952 67.3624 3.238 66.1724 3.238H62.4484V10H66.2424ZM66.0324 9.076H63.4984V6.99H66.0324C66.7464 6.99 67.1244 7.494 67.1244 8.04C67.1244 8.684 66.7044 9.076 66.0324 9.076ZM65.9904 6.066H63.4984V4.162H65.9904C66.6344 4.162 66.9984 4.54 66.9984 5.128C66.9984 5.66 66.6484 6.066 65.9904 6.066ZM80.7118 10V3.238H79.3118L77.2678 8.25L75.1958 3.238H73.8098V10H74.8598V4.694L77.0718 10H77.4638L79.6618 4.694V10H80.7118ZM85.8579 10.168C86.9639 10.168 87.8739 9.804 88.5459 9.132L88.0419 8.446C87.5099 8.992 86.7259 9.3 85.9559 9.3C84.4999 9.3 83.6039 8.236 83.5199 6.962H88.9939V6.696C88.9939 4.666 87.7899 3.07 85.7459 3.07C83.8139 3.07 82.4139 4.652 82.4139 6.612C82.4139 8.726 83.8559 10.168 85.8579 10.168ZM87.9579 6.192H83.5199C83.5759 5.156 84.2899 3.938 85.7319 3.938C87.2719 3.938 87.9439 5.184 87.9579 6.192ZM93.6765 10.168C94.9085 10.168 95.6365 9.664 96.1545 8.992L95.4545 8.348C95.0065 8.95 94.4325 9.23 93.7325 9.23C92.2905 9.23 91.3945 8.11 91.3945 6.612C91.3945 5.114 92.2905 4.008 93.7325 4.008C94.4325 4.008 95.0065 4.274 95.4545 4.89L96.1545 4.246C95.6365 3.574 94.9085 3.07 93.6765 3.07C91.6605 3.07 90.3025 4.61 90.3025 6.612C90.3025 8.628 91.6605 10.168 93.6765 10.168ZM98.6342 10L100.286 7.382H102.134V10H103.184V3.238H99.6142C98.2422 3.238 97.4722 4.162 97.4722 5.31C97.4722 6.444 98.2002 7.214 99.2082 7.34L97.4022 10H98.6342ZM99.7262 6.458C98.9562 6.458 98.5502 5.982 98.5502 5.31C98.5502 4.638 98.9842 4.162 99.7262 4.162H102.134V6.458H99.7262ZM110.644 11.722H111.694V9.076H110.91V3.238H109.86V9.076H106.332V3.238H105.282V10H110.644V11.722Z" fill="white"/>
</svg>
